<?xml version="1.0" encoding="UTF-8" standalone="no"?>
<svg width="337.608mm" height="307.975mm"
 viewBox="0 0 957 873"
 xmlns="http://www.w3.org/2000/svg" xmlns:xlink="http://www.w3.org/1999/xlink"  version="1.2" baseProfile="tiny">
<title>Qt Svg Document</title>
<desc>Generated with Qt</desc>
<defs>
</defs>
<g fill="none" stroke="black" stroke-width="1" fill-rule="evenodd" stroke-linecap="square" stroke-linejoin="bevel" >

<g fill="#ffffff" fill-opacity="1" stroke="none" transform="matrix(1,0,0,1,0,0)"
font-family="Sans" font-size="10" font-weight="400" font-style="normal" 
>
<path vector-effect="non-scaling-stroke" fill-rule="evenodd" d="M0,0 L957,0 L957,873 L0,873 L0,0"/>
</g>

<g fill="none" stroke="#000000" stroke-opacity="1" stroke-width="1" stroke-linecap="round" stroke-linejoin="round" transform="matrix(1,0,0,1,0,0)"
font-family="Sans" font-size="10" font-weight="400" font-style="normal" 
>
<polyline fill="none" vector-effect="non-scaling-stroke" points="650,9 649,7 649,6 647,4 646,3 644,2 642,2 640,2 638,3 637,5 636,6 635,8 635,10 635,12 636,14 638,15 639,16 641,17 643,17 645,16 647,15 648,14 649,12 650,10 650,9 " />
<polyline fill="none" vector-effect="non-scaling-stroke" points="321,9 321,7 320,6 319,4 317,3 315,2 313,2 312,2 310,3 308,5 307,6 306,8 306,10 307,12 308,14 309,15 311,16 313,17 315,17 317,16 318,15 320,14 321,12 321,10 321,9 " />
<polyline fill="none" vector-effect="non-scaling-stroke" points="17,779 17,777 16,775 15,773 13,772 11,771 9,771 7,772 5,772 4,774 3,775 2,777 2,779 2,781 3,783 5,784 6,786 8,786 10,786 12,786 14,785 15,783 16,781 17,779 " />
<polyline fill="none" vector-effect="non-scaling-stroke" points="954,779 954,777 953,775 952,773 950,772 948,771 946,771 944,772 942,772 941,774 940,775 939,777 939,779 940,781 941,783 942,784 944,786 945,786 947,786 949,786 951,785 953,783 953,781 954,779 " />
<polyline fill="none" vector-effect="non-scaling-stroke" points="269,864 269,862 268,860 267,858 266,857 264,856 262,856 260,857 258,857 256,859 255,860 255,862 255,864 255,866 256,868 257,869 259,870 261,871 263,871 265,870 267,869 268,868 269,866 269,864 " />
<polyline fill="none" vector-effect="non-scaling-stroke" points="701,864 701,862 700,860 699,858 697,857 696,856 694,856 692,857 690,857 688,859 687,860 687,862 687,864 687,866 688,868 689,869 691,870 693,871 695,871 697,870 699,869 700,868 701,866 701,864 " />
</g>
</g>
</svg>
