<?xml version="1.0" encoding="UTF-8" standalone="no"?>
<svg width="437.444mm" height="437.444mm"
 viewBox="0 0 1240 1240"
 xmlns="http://www.w3.org/2000/svg" xmlns:xlink="http://www.w3.org/1999/xlink"  version="1.2" baseProfile="tiny">
<title>Qt Svg Document</title>
<desc>Generated with Qt</desc>
<defs>
</defs>
<g fill="none" stroke="black" stroke-width="1" fill-rule="evenodd" stroke-linecap="square" stroke-linejoin="bevel" >

<g fill="#ffffff" fill-opacity="1" stroke="none" transform="matrix(1,0,0,1,0,0)"
font-family="Sans" font-size="10" font-weight="400" font-style="normal" 
>
<path vector-effect="non-scaling-stroke" fill-rule="evenodd" d="M0,0 L1240,0 L1240,1240 L0,1240 L0,0"/>
</g>

<g fill="none" stroke="#000000" stroke-opacity="1" stroke-width="1" stroke-linecap="round" stroke-linejoin="round" transform="matrix(1,0,0,1,0,0)"
font-family="Sans" font-size="10" font-weight="400" font-style="normal" 
>
<polyline fill="none" vector-effect="non-scaling-stroke" points="844,64 843,62 843,60 842,58 840,57 839,56 837,55 835,55 833,54 831,55 829,56 828,57 826,58 825,60 824,62 824,64 824,66 825,68 826,69 827,71 829,72 830,73 832,74 834,74 836,74 838,73 840,72 841,70 842,69 843,67 844,65 844,64 " />
<polyline fill="none" vector-effect="non-scaling-stroke" points="416,64 416,62 415,60 414,58 413,57 411,56 409,55 407,55 405,54 403,55 402,56 400,57 398,58 397,60 397,62 396,64 397,66 397,68 398,69 399,71 401,72 403,73 404,74 406,74 408,74 410,73 412,72 413,70 415,69 415,67 416,65 416,64 " />
<polyline fill="none" vector-effect="non-scaling-stroke" points="19,1066 19,1064 19,1062 18,1060 16,1059 15,1058 13,1057 11,1056 9,1056 7,1057 5,1058 3,1059 2,1060 1,1062 0,1064 0,1066 " />
<polyline fill="none" vector-effect="non-scaling-stroke" points="0,1066 0,1068 1,1070 2,1072 3,1073 5,1074 7,1075 8,1076 10,1076 12,1075 14,1075 16,1074 17,1072 18,1070 19,1069 19,1067 19,1066 " />
<polyline fill="none" vector-effect="non-scaling-stroke" points="348,1177 348,1175 348,1173 347,1171 345,1170 344,1168 342,1167 340,1167 338,1167 336,1167 334,1168 332,1169 331,1171 330,1172 329,1174 329,1176 329,1178 330,1180 331,1182 332,1183 333,1185 335,1186 337,1186 339,1186 341,1186 343,1185 345,1184 346,1183 347,1181 348,1179 348,1178 348,1177 " />
<polyline fill="none" vector-effect="non-scaling-stroke" points="911,1177 911,1175 910,1173 909,1171 908,1170 906,1168 904,1167 902,1167 901,1167 899,1167 897,1168 895,1169 894,1171 893,1172 892,1174 892,1176 892,1178 892,1180 893,1182 894,1183 896,1185 898,1186 900,1186 902,1186 904,1186 905,1185 907,1184 909,1183 910,1181 911,1179 911,1178 911,1177 " />
</g>
</g>
</svg>
