<?xml version="1.0" encoding="UTF-8" standalone="no"?>
<svg width="437.444mm" height="437.444mm"
 viewBox="0 0 1240 1240"
 xmlns="http://www.w3.org/2000/svg" xmlns:xlink="http://www.w3.org/1999/xlink"  version="1.2" baseProfile="tiny">
<title>Qt Svg Document</title>
<desc>Generated with Qt</desc>
<defs>
</defs>
<g fill="none" stroke="black" stroke-width="1" fill-rule="evenodd" stroke-linecap="square" stroke-linejoin="bevel" >

<g fill="#ffffff" fill-opacity="1" stroke="none" transform="matrix(1,0,0,1,0,0)"
font-family="Sans" font-size="10" font-weight="400" font-style="normal" 
>
<path vector-effect="non-scaling-stroke" fill-rule="evenodd" d="M0,0 L1240,0 L1240,1240 L0,1240 L0,0"/>
</g>

<g fill="none" stroke="#000000" stroke-opacity="1" stroke-width="1" stroke-linecap="round" stroke-linejoin="round" transform="matrix(1,0,0,1,0,0)"
font-family="Sans" font-size="10" font-weight="400" font-style="normal" 
>
<polyline fill="none" vector-effect="non-scaling-stroke" points="1065,896 1065,894 1064,892 1063,891 1061,889 1060,889 1058,889 1056,889 1054,890 1052,891 1051,893 1050,895 1050,897 1051,898 1052,900 1053,902 1055,903 1057,903 1059,903 1061,903 1062,902 1064,901 1065,899 1065,897 1065,896 " />
<polyline fill="none" vector-effect="non-scaling-stroke" points="109,345 109,343 108,341 107,339 105,338 103,337 101,337 99,338 98,338 96,340 95,341 94,343 94,345 95,347 95,349 97,350 99,352 100,352 102,352 104,352 106,351 108,349 109,348 109,346 109,345 " />
<polyline fill="none" vector-effect="non-scaling-stroke" points="188,896 187,894 187,892 185,891 184,889 182,889 180,889 178,889 176,890 175,891 174,893 173,895 173,897 173,898 174,900 175,902 177,903 179,903 181,903 183,903 185,902 186,901 187,899 188,897 188,896 " />
<polyline fill="none" vector-effect="non-scaling-stroke" points="109,819 109,817 108,815 107,814 105,812 103,812 101,812 99,812 98,813 96,814 95,816 94,818 94,820 95,821 95,823 97,825 99,826 100,826 102,826 104,826 106,825 108,824 109,822 109,820 109,819 " />
<polyline fill="none" vector-effect="non-scaling-stroke" points="1144,345 1144,343 1143,341 1142,339 1140,338 1138,337 1136,337 1134,338 1132,338 1131,340 1130,341 1129,343 1129,345 1129,347 1130,349 1132,350 1133,352 1135,352 1137,352 1139,352 1141,351 1142,349 1143,348 1144,346 1144,345 " />
<polyline fill="none" vector-effect="non-scaling-stroke" points="1144,819 1144,817 1143,815 1142,814 1140,812 1138,812 1136,812 1134,812 1132,813 1131,814 1130,816 1129,818 1129,820 1129,821 1130,823 1132,825 1133,826 1135,826 1137,826 1139,826 1141,825 1142,824 1143,822 1144,820 1144,819 " />
<polyline fill="none" vector-effect="non-scaling-stroke" points="991,468 247,468 " />
<polyline fill="none" vector-effect="non-scaling-stroke" points="1178,888 1177,888 1175,887 1173,886 1171,886 1169,885 1167,885 1165,884 1163,884 1161,884 1159,884 1157,884 1155,884 1153,885 1151,885 1149,885 1147,886 1145,887 1144,887 1142,888 1140,889 1138,890 1137,891 1135,893 1133,894 1132,895 1131,897 1129,898 1128,900 1127,901 1126,903 1125,905 1124,907 1123,908 1122,910 1122,912 1121,914 1121,916 1120,918 1120,920 1120,922 1120,924 1120,926 1120,928 1120,930 1121,932 1121,934 1122,936 1122,938 1123,940 1124,941 1125,943 1126,945 1127,947 1128,948 1129,950 1131,951 1132,953 1134,954 1135,955 1137,957 1138,958 1139,958 " />
<polyline fill="none" vector-effect="non-scaling-stroke" points="1001,478 1000,476 1000,474 999,472 998,471 996,469 994,468 992,468 991,468 " />
<polyline fill="none" vector-effect="non-scaling-stroke" points="247,468 245,468 244,469 242,470 240,471 239,472 238,474 238,476 237,478 " />
<polyline fill="none" vector-effect="non-scaling-stroke" points="1239,621 1239,619 1239,617 1239,615 1239,613 1239,611 1239,609 1239,607 1239,605 1239,603 1239,601 1239,599 1239,597 1238,595 1238,593 1238,591 1238,589 1238,587 1238,585 1238,583 1238,581 1238,579 1237,577 1237,575 1237,573 1237,571 1237,569 1237,567 1236,565 1236,563 1236,561 1236,559 1236,557 1235,555 1235,553 1235,551 1235,549 1235,547 1234,545 1234,543 1234,541 1234,539 1233,537 1233,535 1233,533 1232,531 1232,529 1232,527 1232,525 1231,523 1231,521 1231,519 1230,517 1230,516 1230,514 1229,512 1229,510 1229,508 1228,506 1228,504 1227,502 1227,500 1227,498 1226,496 1226,494 1225,492 1225,490 1225,488 1224,486 1224,484 1223,482 1223,480 1222,478 1222,476 1221,474 1221,472 1220,471 1220,469 1219,467 1219,465 1218,463 1218,461 1217,459 1217,457 1216,455 1216,453 1215,451 1215,449 1214,447 1214,445 1213,444 1212,442 1212,440 1211,438 1211,436 1210,434 1209,432 1209,430 1208,428 1208,426 1207,424 1206,423 1206,421 1205,419 1204,417 1204,415 1203,413 1202,411 1202,409 1201,407 1200,406 1200,404 1199,402 1198,400 1198,398 1197,396 1196,394 1195,393 1195,391 1194,389 1193,387 1192,385 1192,383 1191,381 1190,380 1189,378 1188,376 1188,374 1187,372 1186,370 1185,369 1184,367 1184,365 1183,363 1182,361 1181,359 1180,358 1179,356 1179,354 1178,352 1177,350 1176,349 1175,347 1174,345 1173,343 1172,341 1171,340 1171,338 1170,336 1169,334 1168,333 1167,331 1166,329 1165,327 1164,326 1163,324 1162,322 1161,320 1160,319 1159,317 1158,315 1157,313 1156,312 1155,310 1154,308 1153,306 1152,305 1151,303 1150,301 1149,299 1148,298 1147,296 1146,294 1145,293 1144,291 1143,289 1142,288 1141,286 1140,284 1138,283 1137,281 1136,279 1135,278 1134,276 1133,274 1132,273 1131,271 1130,269 1128,268 1127,266 1126,264 1125,263 1124,261 1123,259 1121,258 1120,256 1119,255 1118,253 1117,251 1116,250 1114,248 1113,247 1112,245 1111,243 1109,242 1108,240 1107,239 1106,237 1105,236 1103,234 1102,232 1101,231 1100,229 1098,228 1097,226 1096,225 1094,223 1093,222 1092,220 1091,219 1089,217 1088,216 1087,214 1085,212 1084,211 1083,209 1081,208 1080,207 1079,205 1077,204 1076,202 1075,201 1073,199 1072,198 1071,196 1069,195 1068,193 1066,192 1065,190 1064,189 1062,188 1061,186 1059,185 1058,183 1057,182 1055,180 1054,179 1052,178 1051,176 1049,175 1048,173 1047,172 1045,171 1044,169 1042,168 1041,167 1039,165 1038,164 1036,163 1035,161 1033,160 1032,159 1030,157 1029,156 1027,155 1026,153 1024,152 1023,151 1021,149 1020,148 1018,147 1017,145 1015,144 1014,143 1012,142 1011,140 1009,139 1007,138 1006,137 1004,135 1003,134 1001,133 1000,132 998,130 996,129 995,128 993,127 992,126 990,124 988,123 987,122 985,121 984,120 982,118 980,117 979,116 977,115 976,114 974,113 972,112 971,110 969,109 967,108 966,107 964,106 962,105 961,104 959,103 957,101 956,100 954,99 952,98 951,97 949,96 947,95 945,94 944,93 942,92 940,91 939,90 937,89 935,88 934,87 932,86 930,85 928,84 927,83 925,82 923,81 921,80 920,79 918,78 916,77 914,76 913,75 911,74 909,73 907,72 906,71 904,70 902,69 900,68 898,68 897,67 895,66 893,65 891,64 889,63 888,62 886,61 884,61 882,60 880,59 879,58 877,57 875,56 873,56 871,55 869,54 868,53 866,52 864,51 862,51 860,50 858,49 857,48 855,48 853,47 851,46 849,45 847,45 845,44 844,43 842,42 840,42 838,41 836,40 834,40 832,39 831,38 829,38 827,37 825,36 823,36 821,35 819,34 817,34 815,33 814,32 812,32 810,31 808,30 806,30 804,29 802,29 800,28 798,28 796,27 794,26 793,26 791,25 789,25 787,24 785,24 783,23 781,23 779,22 777,22 775,21 773,21 771,20 769,20 767,19 765,19 764,18 762,18 760,17 758,17 756,16 754,16 752,15 750,15 748,15 746,14 744,14 742,13 740,13 738,13 736,12 734,12 732,11 730,11 728,11 726,10 724,10 722,10 720,9 718,9 716,9 714,8 712,8 711,8 709,8 707,7 705,7 703,7 701,6 699,6 697,6 695,6 693,5 691,5 689,5 687,5 685,5 683,4 681,4 679,4 677,4 675,4 673,3 671,3 669,3 667,3 665,3 663,3 661,2 659,2 657,2 655,2 653,2 651,2 649,2 647,2 645,2 643,1 641,1 639,1 637,1 635,1 633,1 631,1 629,1 627,1 625,1 623,1 621,1 619,1 617,1 615,1 613,1 611,1 609,1 607,1 605,1 603,1 601,1 599,1 597,1 595,1 593,2 591,2 589,2 587,2 585,2 583,2 581,2 579,2 577,2 575,3 573,3 571,3 569,3 567,3 565,3 563,4 561,4 559,4 557,4 555,4 553,5 551,5 549,5 547,5 545,5 543,6 541,6 539,6 537,6 535,7 533,7 531,7 529,8 527,8 525,8 523,8 521,9 519,9 517,9 515,10 513,10 511,10 509,11 507,11 505,12 504,12 502,12 500,13 498,13 496,13 494,14 492,14 490,15 488,15 486,15 484,16 482,16 480,17 478,17 476,18 474,18 472,19 470,19 468,20 466,20 464,21 463,21 461,22 459,22 457,23 455,23 453,24 451,24 449,25 447,25 445,26 443,26 441,27 439,28 438,28 436,29 434,29 432,30 430,31 428,31 426,32 424,32 422,33 420,34 419,34 417,35 415,36 413,36 411,37 409,38 407,38 405,39 403,40 402,40 400,41 398,42 396,43 394,43 392,44 390,45 389,45 387,46 385,47 383,48 381,48 379,49 377,50 376,51 374,52 372,52 370,53 368,54 366,55 365,56 363,56 361,57 359,58 357,59 356,60 354,61 352,62 350,62 348,63 346,64 345,65 343,66 341,67 339,68 338,69 336,70 334,70 332,71 330,72 329,73 327,74 325,75 323,76 322,77 320,78 318,79 316,80 315,81 313,82 311,83 309,84 308,85 306,86 304,87 303,88 301,89 299,90 297,91 296,92 294,93 292,94 291,95 289,96 287,97 285,98 284,99 282,101 280,102 279,103 277,104 275,105 274,106 272,107 270,108 269,109 267,111 266,112 264,113 262,114 261,115 259,116 257,117 256,119 254,120 252,121 251,122 249,123 248,125 246,126 244,127 243,128 241,129 240,131 238,132 237,133 235,134 233,136 232,137 230,138 229,139 227,141 226,142 224,143 223,144 221,146 219,147 218,148 216,150 215,151 213,152 212,153 210,155 209,156 207,157 206,159 204,160 203,161 201,163 200,164 198,165 197,167 196,168 194,170 193,171 191,172 190,174 188,175 187,176 185,178 184,179 183,181 181,182 180,183 178,185 177,186 176,188 174,189 173,191 171,192 170,194 169,195 167,196 166,198 165,199 163,201 162,202 160,204 159,205 158,207 156,208 155,210 154,211 152,213 151,214 150,216 149,217 147,219 146,220 145,222 143,223 142,225 141,226 140,228 138,230 137,231 136,233 134,234 133,236 132,237 131,239 130,240 128,242 127,244 126,245 125,247 123,248 122,250 121,252 120,253 119,255 118,256 116,258 115,260 114,261 113,263 112,265 111,266 109,268 108,270 107,271 106,273 105,274 104,276 103,278 102,279 100,281 99,283 98,284 97,286 96,288 95,290 94,291 93,293 92,295 91,296 90,298 89,300 88,301 87,303 86,305 85,307 84,308 83,310 82,312 81,314 80,315 79,317 78,319 77,321 76,322 75,324 74,326 73,328 72,329 71,331 70,333 69,335 68,336 67,338 66,340 65,342 65,344 64,345 63,347 62,349 61,351 60,352 59,354 58,356 58,358 57,360 56,362 55,363 54,365 53,367 53,369 52,371 51,372 50,374 49,376 49,378 48,380 47,382 46,384 46,385 45,387 44,389 43,391 43,393 42,395 41,397 40,398 40,400 39,402 38,404 38,406 37,408 36,410 35,412 35,413 34,415 33,417 33,419 32,421 32,423 31,425 30,427 30,429 29,430 28,432 28,434 27,436 27,438 26,440 25,442 25,444 24,446 24,448 23,450 23,451 22,453 22,455 21,457 21,459 20,461 19,463 19,465 18,467 18,469 17,471 17,473 17,475 16,477 16,479 15,481 15,482 14,484 14,486 13,488 13,490 13,492 12,494 12,496 11,498 11,500 11,502 10,504 10,506 9,508 9,510 9,512 8,514 8,516 8,518 7,520 7,522 7,524 6,526 6,528 6,530 6,532 5,534 5,536 5,538 4,540 4,542 4,544 4,545 3,547 3,549 3,551 3,553 3,555 2,557 2,559 2,561 2,563 2,565 1,567 1,569 1,571 1,573 1,575 1,577 0,579 0,581 0,583 0,585 0,586 " />
<polyline fill="none" vector-effect="non-scaling-stroke" points="0,656 0,658 0,660 0,662 0,664 1,666 1,668 1,670 1,672 1,674 1,676 2,678 2,680 2,682 2,684 2,686 3,688 3,690 3,692 3,694 4,696 4,698 4,700 4,701 5,703 5,705 5,707 5,709 6,711 6,713 6,715 7,717 7,719 7,721 8,723 8,725 8,727 9,729 9,731 9,733 10,735 10,737 10,739 11,741 11,743 12,745 12,747 12,749 13,751 13,753 14,755 14,757 14,759 15,761 15,762 16,764 16,766 17,768 17,770 18,772 18,774 19,776 19,778 20,780 20,782 21,784 21,786 22,788 22,790 23,791 23,793 24,795 25,797 25,799 26,801 26,803 27,805 28,807 28,809 29,811 29,813 30,814 31,816 31,818 32,820 33,822 33,824 34,826 34,828 35,830 36,831 37,833 37,835 38,837 39,839 39,841 40,843 41,845 41,846 42,848 43,850 44,852 44,854 45,856 46,858 47,859 47,861 48,863 49,865 50,867 51,869 51,870 52,872 53,874 54,876 55,878 56,880 56,881 57,883 58,885 59,887 60,889 61,890 62,892 62,894 63,896 64,898 65,899 66,901 67,903 68,905 69,907 70,908 71,910 71,912 72,914 73,915 74,917 75,919 76,921 77,922 78,924 79,926 80,928 81,929 82,931 83,933 84,935 85,936 86,938 87,940 88,941 89,943 90,945 91,947 92,948 93,950 95,952 96,953 97,955 98,957 99,958 100,960 101,962 102,963 103,965 104,967 105,968 107,970 108,972 109,973 110,975 111,977 112,978 113,980 115,981 116,983 117,985 118,986 119,988 120,990 122,991 123,993 124,994 125,996 127,998 128,999 129,1001 130,1002 131,1004 133,1005 134,1007 135,1009 136,1010 138,1012 139,1013 140,1015 141,1016 143,1018 144,1019 145,1021 147,1022 148,1024 149,1026 150,1027 152,1029 153,1030 154,1032 156,1033 157,1035 158,1036 160,1038 161,1039 162,1040 164,1042 165,1043 167,1045 168,1046 169,1048 171,1049 172,1051 173,1052 175,1054 176,1055 178,1056 179,1058 180,1059 182,1061 183,1062 185,1063 186,1065 188,1066 189,1068 190,1069 192,1070 193,1072 195,1073 196,1075 198,1076 199,1077 201,1079 202,1080 204,1081 205,1083 207,1084 208,1085 210,1087 211,1088 213,1089 214,1091 216,1092 217,1093 219,1094 220,1096 222,1097 223,1098 225,1100 226,1101 228,1102 230,1103 231,1105 233,1106 234,1107 236,1108 237,1110 239,1111 241,1112 242,1113 244,1114 245,1116 247,1117 248,1118 250,1119 252,1120 253,1122 255,1123 257,1124 258,1125 260,1126 261,1127 263,1129 265,1130 266,1131 268,1132 270,1133 271,1134 273,1135 275,1137 276,1138 278,1139 280,1140 281,1141 283,1142 285,1143 286,1144 288,1145 290,1146 291,1147 293,1148 295,1149 297,1151 298,1152 300,1153 302,1154 303,1155 305,1156 307,1157 309,1158 310,1159 312,1160 314,1161 316,1162 317,1163 319,1164 321,1165 323,1165 324,1166 326,1167 328,1168 330,1169 331,1170 333,1171 335,1172 337,1173 338,1174 340,1175 342,1176 344,1177 346,1177 347,1178 349,1179 351,1180 353,1181 355,1182 356,1183 358,1183 360,1184 362,1185 364,1186 366,1187 367,1188 369,1188 371,1189 373,1190 375,1191 377,1192 378,1192 380,1193 382,1194 384,1195 386,1195 388,1196 389,1197 391,1198 393,1198 395,1199 397,1200 399,1201 401,1201 403,1202 404,1203 406,1203 408,1204 410,1205 412,1205 414,1206 416,1207 418,1207 419,1208 421,1209 423,1209 425,1210 427,1211 429,1211 431,1212 433,1212 435,1213 437,1214 439,1214 440,1215 442,1215 444,1216 446,1216 448,1217 450,1218 452,1218 454,1219 456,1219 458,1220 460,1220 462,1221 464,1221 465,1222 467,1222 469,1223 471,1223 473,1224 475,1224 477,1225 479,1225 481,1225 483,1226 485,1226 487,1227 489,1227 491,1228 493,1228 495,1228 497,1229 499,1229 501,1230 503,1230 505,1230 506,1231 508,1231 510,1231 512,1232 514,1232 516,1232 518,1233 520,1233 522,1233 524,1234 526,1234 528,1234 530,1235 532,1235 534,1235 536,1235 538,1236 540,1236 542,1236 544,1236 546,1237 548,1237 550,1237 552,1237 554,1238 556,1238 558,1238 560,1238 562,1238 564,1239 566,1239 568,1239 570,1239 572,1239 574,1239 576,1239 578,1240 580,1240 582,1240 584,1240 " />
<polyline fill="none" vector-effect="non-scaling-stroke" points="654,1240 656,1240 658,1240 660,1240 662,1240 664,1239 666,1239 668,1239 670,1239 672,1239 674,1239 676,1238 678,1238 680,1238 682,1238 684,1238 686,1237 688,1237 690,1237 692,1237 694,1236 696,1236 698,1236 699,1236 701,1235 703,1235 705,1235 707,1235 709,1234 711,1234 713,1234 715,1233 717,1233 719,1233 721,1232 723,1232 725,1232 727,1231 729,1231 731,1231 733,1230 735,1230 737,1230 739,1229 741,1229 743,1228 745,1228 747,1228 749,1227 751,1227 753,1226 755,1226 757,1226 759,1225 760,1225 762,1224 764,1224 766,1223 768,1223 770,1222 772,1222 774,1221 776,1221 778,1220 780,1220 782,1219 784,1219 786,1218 788,1218 789,1217 791,1217 793,1216 795,1215 797,1215 799,1214 801,1214 803,1213 805,1212 807,1212 809,1211 811,1211 812,1210 814,1209 816,1209 818,1208 820,1207 822,1207 824,1206 826,1206 828,1205 829,1204 831,1203 833,1203 835,1202 837,1201 839,1201 841,1200 843,1199 844,1199 846,1198 848,1197 850,1196 852,1196 854,1195 856,1194 857,1193 859,1193 861,1192 863,1191 865,1190 867,1189 868,1189 870,1188 872,1187 874,1186 876,1185 878,1184 879,1184 881,1183 883,1182 885,1181 887,1180 888,1179 890,1178 892,1178 894,1177 896,1176 897,1175 899,1174 901,1173 903,1172 905,1171 906,1170 908,1169 910,1169 912,1168 913,1167 915,1166 917,1165 919,1164 920,1163 922,1162 924,1161 926,1160 927,1159 929,1158 931,1157 933,1156 934,1155 936,1154 938,1153 939,1152 941,1151 943,1150 945,1149 946,1148 948,1147 950,1145 951,1144 953,1143 955,1142 956,1141 958,1140 960,1139 961,1138 963,1137 965,1136 966,1135 968,1133 970,1132 971,1131 973,1130 975,1129 976,1128 978,1127 979,1125 981,1124 983,1123 984,1122 986,1121 988,1120 989,1118 991,1117 992,1116 994,1115 996,1113 997,1112 999,1111 1000,1110 1002,1109 1003,1107 1005,1106 1007,1105 1008,1104 1010,1102 1011,1101 1013,1100 1014,1099 1016,1097 1017,1096 1019,1095 1020,1093 1022,1092 1024,1091 1025,1090 1027,1088 1028,1087 1030,1086 1031,1084 1033,1083 1034,1082 1036,1080 1037,1079 1038,1078 1040,1076 1041,1075 1043,1073 1044,1072 1046,1071 1047,1069 1049,1068 1050,1067 1052,1065 1053,1064 1054,1062 1056,1061 1057,1060 1059,1058 1060,1057 1061,1055 1063,1054 1064,1052 1066,1051 1067,1050 1068,1048 1070,1047 1071,1045 1073,1044 1074,1042 1075,1041 1077,1039 1078,1038 1079,1036 1081,1035 1082,1033 1083,1032 1085,1030 1086,1029 1087,1027 1089,1026 1090,1024 1091,1023 1092,1021 1094,1020 1095,1018 1096,1017 1098,1015 1099,1014 1100,1012 1101,1010 1103,1009 1104,1007 1105,1006 1106,1004 1108,1003 1109,1001 1110,999 1111,998 1112,996 1114,995 1115,993 1116,992 1117,990 1118,988 1120,987 1121,985 1122,983 1123,982 1124,980 1125,979 1127,977 1128,975 1129,974 1130,972 1131,970 1132,969 1133,967 1135,965 1136,964 1137,962 1138,960 1139,959 1140,957 1141,955 1142,954 1143,952 1144,950 1145,949 1146,947 1147,945 1149,943 1150,942 1151,940 1152,938 1153,937 1154,935 1155,933 1156,931 1157,930 1158,928 1159,926 1160,924 1161,923 1162,921 1163,919 1163,917 1164,916 1165,914 1166,912 1167,910 1168,909 1169,907 1170,905 1171,903 1172,902 1173,900 1174,898 1175,896 1175,894 1176,893 1177,891 1178,889 1179,887 1180,885 1181,884 1181,882 1182,880 1183,878 1184,876 1185,874 1186,873 1186,871 1187,869 1188,867 1189,865 1190,863 1190,862 1191,860 1192,858 1193,856 1193,854 1194,852 1195,851 1196,849 1196,847 1197,845 1198,843 1199,841 1199,839 1200,837 1201,836 1201,834 1202,832 1203,830 1203,828 1204,826 1205,824 1205,822 1206,821 1207,819 1207,817 1208,815 1209,813 1209,811 1210,809 1210,807 1211,805 1212,803 1212,801 1213,800 1213,798 1214,796 1214,794 1215,792 1216,790 1216,788 1217,786 1217,784 1218,782 1218,780 1219,778 1219,776 1220,775 1220,773 1221,771 1221,769 1222,767 1222,765 1223,763 1223,761 1223,759 1224,757 1224,755 1225,753 1225,751 1226,749 1226,747 1226,745 1227,743 1227,741 1228,739 1228,737 1228,735 1229,734 1229,732 1229,730 1230,728 1230,726 1230,724 1231,722 1231,720 1231,718 1232,716 1232,714 1232,712 1233,710 1233,708 1233,706 1233,704 1234,702 1234,700 1234,698 1234,696 1235,694 1235,692 1235,690 1235,688 1236,686 1236,684 1236,682 1236,680 1236,678 1237,676 1237,674 1237,672 1237,670 1237,668 1237,666 1237,664 1238,662 1238,660 1238,658 1238,656 1238,654 1238,652 1238,650 1238,648 1238,646 1239,644 1239,642 1239,640 1239,638 1239,636 1239,634 1239,632 1239,630 1239,628 1239,626 1239,624 1239,622 1239,621 " />
<polyline fill="none" vector-effect="non-scaling-stroke" points="237,478 237,886 " />
<polyline fill="none" vector-effect="non-scaling-stroke" points="1001,886 1001,478 " />
<polyline fill="none" vector-effect="non-scaling-stroke" points="247,896 991,896 " />
<polyline fill="none" vector-effect="non-scaling-stroke" points="237,886 238,888 238,890 239,892 240,893 242,895 244,895 246,896 247,896 " />
<polyline fill="none" vector-effect="non-scaling-stroke" points="991,896 993,896 994,895 996,894 998,893 999,892 1000,890 1000,888 1001,886 " />
<polyline fill="none" vector-effect="non-scaling-stroke" points="626,191 626,189 625,187 624,186 623,184 621,184 619,184 617,184 615,185 613,186 612,188 612,190 612,192 612,193 613,195 614,197 616,198 618,198 620,198 622,198 623,197 625,196 626,194 626,192 626,191 " />
<polyline fill="none" vector-effect="non-scaling-stroke" points="626,1024 626,1022 625,1020 624,1019 623,1018 621,1017 619,1017 617,1017 615,1018 613,1019 612,1021 612,1023 612,1025 612,1027 613,1029 614,1030 616,1031 618,1032 620,1032 622,1031 623,1030 625,1029 626,1027 626,1025 626,1024 " />
<polyline fill="none" vector-effect="non-scaling-stroke" points="1239,621 1239,619 1239,617 1239,615 1239,613 1239,611 1239,609 1239,607 1239,605 1239,603 1239,601 1239,599 1239,597 1238,595 1238,593 1238,591 1238,589 1238,587 1238,585 1238,583 1238,581 1238,579 1237,577 1237,575 1237,573 1237,571 1237,569 1237,567 1237,565 1236,563 1236,561 1236,559 1236,557 1236,555 1235,553 1235,551 1235,549 1235,547 1234,545 1234,543 1234,541 1234,539 1233,537 1233,535 1233,533 1233,531 1232,529 1232,527 1232,525 1231,523 1231,521 1231,519 1230,517 1230,515 1230,513 1229,512 1229,510 1229,508 1228,506 1228,504 1227,502 1227,500 1227,498 1226,496 1226,494 1225,492 1225,490 1225,488 1224,486 1224,484 1223,482 1223,480 1222,478 1222,476 1221,474 1221,472 1220,470 1220,469 1220,467 1219,465 1218,463 1218,461 1217,459 1217,457 1216,455 1216,453 1215,451 1215,449 1214,447 1214,445 1213,443 1213,442 1212,440 1211,438 1211,436 1210,434 1210,432 1209,430 1208,428 1208,426 1207,424 1206,422 1206,421 1205,419 1204,417 1204,415 1203,413 1202,411 1202,409 1201,407 1200,406 1200,404 1199,402 1198,400 1198,398 1197,396 1196,394 1195,392 1195,391 1194,389 1193,387 1192,385 1192,383 1191,381 1190,380 1189,378 1189,376 1188,374 1187,372 1186,370 1185,368 1184,367 1184,365 1183,363 1182,361 1181,359 1180,358 1179,356 1179,354 1178,352 1177,350 1176,349 1175,347 1174,345 1173,343 1172,341 1172,340 1171,338 1170,336 1169,334 1168,333 1167,331 1166,329 1165,327 1164,325 1163,324 1162,322 1161,320 1160,318 1159,317 1158,315 1157,313 1156,311 1155,310 1154,308 1153,306 1152,305 1151,303 1150,301 1149,299 1148,298 1147,296 1146,294 1145,293 1144,291 1143,289 1142,288 1141,286 1140,284 1139,283 1137,281 1136,279 1135,277 1134,276 1133,274 1132,273 1131,271 1130,269 1128,268 1127,266 1126,264 1125,263 1124,261 1123,259 1122,258 1120,256 1119,255 1118,253 1117,251 1116,250 1114,248 1113,247 1112,245 1111,243 1110,242 1108,240 1107,239 1106,237 1105,235 1103,234 1102,232 1101,231 1100,229 1098,228 1097,226 1096,225 1095,223 1093,222 1092,220 1091,218 1089,217 1088,215 1087,214 1085,212 1084,211 1083,209 1081,208 1080,206 1079,205 1077,203 1076,202 1075,201 1073,199 1072,198 1071,196 1069,195 1068,193 1066,192 1065,190 1064,189 1062,187 1061,186 1060,185 1058,183 1057,182 1055,180 1054,179 1052,178 1051,176 1050,175 1048,173 1047,172 1045,171 1044,169 1042,168 1041,167 1039,165 1038,164 1036,162 1035,161 1033,160 1032,158 1030,157 1029,156 1027,154 1026,153 1024,152 1023,151 1021,149 1020,148 1018,147 1017,145 1015,144 1014,143 1012,142 1011,140 1009,139 1008,138 1006,137 1004,135 1003,134 1001,133 1000,132 998,130 997,129 995,128 993,127 992,126 990,124 989,123 987,122 985,121 984,120 982,118 980,117 979,116 977,115 976,114 974,113 972,111 971,110 969,109 967,108 966,107 964,106 962,105 961,104 959,103 957,101 956,100 954,99 952,98 951,97 949,96 947,95 946,94 944,93 942,92 940,91 939,90 937,89 935,88 934,87 932,86 930,85 928,84 927,83 925,82 923,81 921,80 920,79 918,78 916,77 914,76 913,75 911,74 909,73 907,72 906,71 904,70 902,69 900,68 898,68 897,67 895,66 893,65 891,64 889,63 888,62 886,61 884,60 882,60 880,59 879,58 877,57 875,56 873,55 871,55 870,54 868,53 866,52 864,51 862,51 860,50 859,49 857,48 855,48 853,47 851,46 849,45 847,45 846,44 844,43 842,42 840,42 838,41 836,40 834,40 832,39 831,38 829,37 827,37 825,36 823,35 821,35 819,34 817,34 815,33 814,32 812,32 810,31 808,30 806,30 804,29 802,29 800,28 798,27 796,27 794,26 793,26 791,25 789,25 787,24 785,24 783,23 781,22 779,22 777,21 775,21 773,20 771,20 769,19 767,19 766,19 764,18 762,18 760,17 758,17 756,16 754,16 752,15 750,15 748,15 746,14 744,14 742,13 740,13 738,13 736,12 734,12 732,11 730,11 728,11 726,10 724,10 722,10 720,9 718,9 717,9 715,8 713,8 711,8 709,7 707,7 705,7 703,7 701,6 699,6 697,6 695,6 693,5 691,5 689,5 687,5 685,4 683,4 681,4 679,4 677,4 675,3 673,3 671,3 669,3 667,3 665,3 663,3 661,2 659,2 657,2 655,2 653,2 651,2 649,2 647,2 645,2 643,1 641,1 639,1 637,1 635,1 633,1 631,1 629,1 627,1 625,1 623,1 621,1 619,1 617,1 615,1 613,1 611,1 609,1 607,1 605,1 603,1 601,1 599,1 597,1 595,1 593,2 591,2 589,2 587,2 585,2 583,2 581,2 579,2 577,2 575,3 573,3 571,3 569,3 567,3 565,3 563,4 561,4 559,4 557,4 555,4 553,4 551,5 549,5 547,5 545,5 543,6 541,6 539,6 537,6 535,7 533,7 531,7 529,8 527,8 525,8 523,8 521,9 519,9 517,9 515,10 513,10 511,10 509,11 508,11 506,11 504,12 502,12 500,13 498,13 496,13 494,14 492,14 490,15 488,15 486,15 484,16 482,16 480,17 478,17 476,18 474,18 472,19 470,19 468,20 466,20 465,21 463,21 461,22 459,22 457,23 455,23 453,24 451,24 449,25 447,25 445,26 443,26 441,27 440,28 438,28 436,29 434,29 432,30 430,31 428,31 426,32 424,32 422,33 420,34 419,34 417,35 415,36 413,36 411,37 409,38 407,38 405,39 404,40 402,40 400,41 398,42 396,42 394,43 392,44 390,45 389,45 387,46 385,47 383,48 381,48 379,49 377,50 376,51 374,52 372,52 370,53 368,54 366,55 365,56 363,56 361,57 359,58 357,59 356,60 354,61 352,61 350,62 348,63 347,64 345,65 343,66 341,67 339,68 338,69 336,69 334,70 332,71 330,72 329,73 327,74 325,75 323,76 322,77 320,78 318,79 316,80 315,81 313,82 311,83 309,84 308,85 306,86 304,87 303,88 301,89 299,90 297,91 296,92 294,93 292,94 291,95 289,96 287,97 286,98 284,99 282,100 280,102 279,103 277,104 275,105 274,106 272,107 271,108 269,109 267,110 266,112 264,113 262,114 261,115 259,116 257,117 256,119 254,120 253,121 251,122 249,123 248,124 246,126 245,127 243,128 241,129 240,131 238,132 237,133 235,134 233,135 232,137 230,138 229,139 227,140 226,142 224,143 223,144 221,146 220,147 218,148 216,149 215,151 213,152 212,153 210,155 209,156 207,157 206,159 204,160 203,161 201,163 200,164 199,165 197,167 196,168 194,169 193,171 191,172 190,174 188,175 187,176 185,178 184,179 183,181 181,182 180,183 178,185 177,186 176,188 174,189 173,191 171,192 170,193 169,195 167,196 166,198 165,199 163,201 162,202 160,204 159,205 158,207 156,208 155,210 154,211 153,213 151,214 150,216 149,217 147,219 146,220 145,222 143,223 142,225 141,226 140,228 138,229 137,231 136,233 135,234 133,236 132,237 131,239 130,240 128,242 127,244 126,245 125,247 124,248 122,250 121,252 120,253 119,255 118,256 116,258 115,260 114,261 113,263 112,265 111,266 109,268 108,269 107,271 106,273 105,274 104,276 103,278 102,279 101,281 99,283 98,284 97,286 96,288 95,289 94,291 93,293 92,295 91,296 90,298 89,300 88,301 87,303 86,305 85,307 84,308 83,310 82,312 81,313 80,315 79,317 78,319 77,320 76,322 75,324 74,326 73,327 72,329 71,331 70,333 69,335 68,336 67,338 66,340 66,342 65,343 64,345 63,347 62,349 61,351 60,352 59,354 59,356 58,358 57,360 56,361 55,363 54,365 54,367 53,369 52,371 51,372 50,374 49,376 49,378 48,380 47,382 46,383 46,385 45,387 44,389 43,391 43,393 42,395 41,396 40,398 40,400 39,402 38,404 38,406 37,408 36,410 36,411 35,413 34,415 34,417 33,419 32,421 32,423 31,425 30,427 30,428 29,430 28,432 28,434 27,436 27,438 26,440 26,442 25,444 24,446 24,448 23,450 23,451 22,453 22,455 21,457 21,459 20,461 20,463 19,465 19,467 18,469 18,471 17,473 17,475 16,477 16,479 15,480 15,482 14,484 14,486 13,488 13,490 13,492 12,494 12,496 11,498 11,500 11,502 10,504 10,506 9,508 9,510 9,512 8,514 8,516 8,518 7,520 7,522 7,524 6,526 6,528 6,530 6,532 5,534 5,536 5,537 4,539 4,541 4,543 4,545 3,547 3,549 3,551 3,553 3,555 2,557 2,559 2,561 2,563 2,565 1,567 1,569 1,571 1,573 1,575 1,577 0,579 0,581 0,583 0,585 0,587 " />
<polyline fill="none" vector-effect="non-scaling-stroke" points="0,655 0,657 0,659 0,661 0,663 1,665 1,667 1,669 1,671 1,673 1,675 2,677 2,679 2,681 2,683 2,685 3,687 3,688 3,690 3,692 3,694 4,696 4,698 4,700 4,702 5,704 5,706 5,708 6,710 6,712 6,714 6,716 7,718 7,720 7,722 8,724 8,726 8,728 9,730 9,732 9,734 10,736 10,738 11,740 11,742 11,744 12,746 12,748 13,750 13,752 13,754 14,756 14,757 15,759 15,761 16,763 16,765 17,767 17,769 18,771 18,773 19,775 19,777 20,779 20,781 21,783 21,785 22,787 22,789 23,790 23,792 24,794 24,796 25,798 26,800 26,802 27,804 27,806 28,808 28,810 29,811 30,813 30,815 31,817 32,819 32,821 33,823 34,825 34,827 35,829 36,830 36,832 37,834 38,836 38,838 39,840 40,842 40,844 41,845 42,847 43,849 43,851 44,853 45,855 46,857 46,858 47,860 48,862 49,864 49,866 50,868 51,869 52,871 53,873 53,875 54,877 55,879 56,880 57,882 58,884 59,886 59,888 60,889 61,891 62,893 63,895 64,897 65,898 66,900 66,902 67,904 68,906 69,907 70,909 71,911 72,913 73,914 74,916 75,918 76,920 77,921 78,923 79,925 80,927 81,928 82,930 83,932 84,934 85,935 86,937 87,939 88,940 89,942 90,944 91,946 92,947 93,949 94,951 95,952 96,954 97,956 98,957 99,959 101,961 102,962 103,964 104,966 105,967 106,969 107,971 108,972 109,974 111,976 112,977 113,979 114,981 115,982 116,984 118,985 119,987 120,989 121,990 122,992 124,994 125,995 126,997 127,998 128,1000 130,1001 131,1003 132,1005 133,1006 135,1008 136,1009 137,1011 138,1012 140,1014 141,1016 142,1017 143,1019 145,1020 146,1022 147,1023 149,1025 150,1026 151,1028 152,1029 154,1031 155,1032 156,1034 158,1035 159,1037 160,1038 162,1040 163,1041 165,1043 166,1044 167,1046 169,1047 170,1048 171,1050 173,1051 174,1053 176,1054 177,1056 178,1057 180,1058 181,1060 183,1061 184,1063 185,1064 187,1065 188,1067 190,1068 191,1070 193,1071 194,1072 196,1074 197,1075 199,1076 200,1078 201,1079 203,1081 204,1082 206,1083 207,1085 209,1086 210,1087 212,1088 213,1090 215,1091 216,1092 218,1094 220,1095 221,1096 223,1098 224,1099 226,1100 227,1101 229,1103 230,1104 232,1105 233,1106 235,1108 237,1109 238,1110 240,1111 241,1113 243,1114 245,1115 246,1116 248,1117 249,1119 251,1120 253,1121 254,1122 256,1123 257,1124 259,1126 261,1127 262,1128 264,1129 266,1130 267,1131 269,1133 270,1134 272,1135 274,1136 275,1137 277,1138 279,1139 280,1140 282,1141 284,1142 286,1144 287,1145 289,1146 291,1147 292,1148 294,1149 296,1150 297,1151 299,1152 301,1153 303,1154 304,1155 306,1156 308,1157 309,1158 311,1159 313,1160 315,1161 316,1162 318,1163 320,1164 322,1165 323,1166 325,1167 327,1168 329,1169 330,1170 332,1171 334,1172 336,1172 338,1173 339,1174 341,1175 343,1176 345,1177 347,1178 348,1179 350,1180 352,1180 354,1181 356,1182 357,1183 359,1184 361,1185 363,1185 365,1186 366,1187 368,1188 370,1189 372,1190 374,1190 376,1191 377,1192 379,1193 381,1193 383,1194 385,1195 387,1196 389,1196 390,1197 392,1198 394,1199 396,1199 398,1200 400,1201 402,1202 403,1202 405,1203 407,1204 409,1204 411,1205 413,1206 415,1206 417,1207 419,1208 420,1208 422,1209 424,1210 426,1210 428,1211 430,1211 432,1212 434,1213 436,1213 438,1214 439,1214 441,1215 443,1215 445,1216 447,1217 449,1217 451,1218 453,1218 455,1219 457,1219 459,1220 461,1220 463,1221 465,1221 466,1222 468,1222 470,1223 472,1223 474,1224 476,1224 478,1225 480,1225 482,1226 484,1226 486,1226 488,1227 490,1227 492,1228 494,1228 496,1229 498,1229 500,1229 502,1230 504,1230 506,1230 507,1231 509,1231 511,1232 513,1232 515,1232 517,1233 519,1233 521,1233 523,1233 525,1234 527,1234 529,1234 531,1235 533,1235 535,1235 537,1235 539,1236 541,1236 543,1236 545,1236 547,1237 549,1237 551,1237 553,1237 555,1238 557,1238 559,1238 561,1238 563,1238 565,1239 567,1239 569,1239 571,1239 573,1239 575,1239 577,1239 579,1240 581,1240 583,1240 585,1240 " />
<polyline fill="none" vector-effect="non-scaling-stroke" points="653,1240 655,1240 657,1240 659,1240 661,1240 663,1239 665,1239 667,1239 669,1239 671,1239 673,1239 675,1238 677,1238 679,1238 681,1238 683,1238 685,1237 687,1237 689,1237 691,1237 693,1237 695,1236 697,1236 699,1236 701,1236 702,1235 704,1235 706,1235 708,1234 710,1234 712,1234 714,1234 716,1233 718,1233 720,1233 722,1232 724,1232 726,1232 728,1231 730,1231 732,1231 734,1230 736,1230 738,1229 740,1229 742,1229 744,1228 746,1228 748,1227 750,1227 752,1227 754,1226 756,1226 758,1225 760,1225 761,1224 763,1224 765,1223 767,1223 769,1222 771,1222 773,1221 775,1221 777,1220 779,1220 781,1219 783,1219 785,1218 787,1218 789,1217 790,1217 792,1216 794,1216 796,1215 798,1214 800,1214 802,1213 804,1213 806,1212 808,1212 810,1211 812,1210 813,1210 815,1209 817,1208 819,1208 821,1207 823,1206 825,1206 827,1205 829,1204 830,1204 832,1203 834,1202 836,1202 838,1201 840,1200 842,1200 844,1199 845,1198 847,1197 849,1197 851,1196 853,1195 855,1194 857,1194 858,1193 860,1192 862,1191 864,1191 866,1190 868,1189 869,1188 871,1187 873,1187 875,1186 877,1185 878,1184 880,1183 882,1182 884,1181 886,1181 888,1180 889,1179 891,1178 893,1177 895,1176 897,1175 898,1174 900,1174 902,1173 904,1172 905,1171 907,1170 909,1169 911,1168 913,1167 914,1166 916,1165 918,1164 920,1163 921,1162 923,1161 925,1160 926,1159 928,1158 930,1157 932,1156 933,1155 935,1154 937,1153 939,1152 940,1151 942,1150 944,1149 945,1148 947,1147 949,1146 950,1145 952,1144 954,1143 956,1142 957,1141 959,1139 961,1138 962,1137 964,1136 966,1135 967,1134 969,1133 971,1132 972,1131 974,1129 975,1128 977,1127 979,1126 980,1125 982,1124 984,1122 985,1121 987,1120 988,1119 990,1118 992,1116 993,1115 995,1114 996,1113 998,1112 1000,1110 1001,1109 1003,1108 1004,1107 1006,1105 1007,1104 1009,1103 1011,1102 1012,1100 1014,1099 1015,1098 1017,1097 1018,1095 1020,1094 1021,1093 1023,1091 1024,1090 1026,1089 1027,1088 1029,1086 1030,1085 1032,1084 1033,1082 1035,1081 1036,1080 1038,1078 1039,1077 1041,1075 1042,1074 1044,1073 1045,1071 1047,1070 1048,1069 1049,1067 1051,1066 1052,1064 1054,1063 1055,1062 1057,1060 1058,1059 1059,1057 1061,1056 1062,1055 1064,1053 1065,1052 1066,1050 1068,1049 1069,1047 1071,1046 1072,1044 1073,1043 1075,1041 1076,1040 1077,1039 1079,1037 1080,1036 1081,1034 1083,1033 1084,1031 1085,1030 1087,1028 1088,1027 1089,1025 1091,1024 1092,1022 1093,1020 1094,1019 1096,1017 1097,1016 1098,1014 1099,1013 1101,1011 1102,1010 1103,1008 1105,1007 1106,1005 1107,1003 1108,1002 1109,1000 1111,999 1112,997 1113,995 1114,994 1116,992 1117,991 1118,989 1119,987 1120,986 1121,984 1123,983 1124,981 1125,979 1126,978 1127,976 1128,974 1130,973 1131,971 1132,970 1133,968 1134,966 1135,965 1136,963 1137,961 1138,960 1140,958 1141,956 1142,954 1143,953 1144,951 1145,949 1146,948 1147,946 1148,944 1149,943 1150,941 1151,939 1152,937 1153,936 1154,934 1155,932 1156,931 1157,929 1158,927 1159,925 1160,924 1161,922 1162,920 1163,918 1164,917 1165,915 1166,913 1167,911 1168,910 1169,908 1170,906 1171,904 1171,902 1172,901 1173,899 1174,897 1175,895 1176,893 1177,892 1178,890 1179,888 1179,886 1180,884 1181,883 1182,881 1183,879 1184,877 1184,875 1185,874 1186,872 1187,870 1188,868 1188,866 1189,864 1190,863 1191,861 1192,859 1192,857 1193,855 1194,853 1195,851 1195,850 1196,848 1197,846 1198,844 1198,842 1199,840 1200,838 1200,837 1201,835 1202,833 1202,831 1203,829 1204,827 1204,825 1205,823 1206,821 1206,820 1207,818 1208,816 1208,814 1209,812 1209,810 1210,808 1211,806 1211,804 1212,802 1212,801 1213,799 1214,797 1214,795 1215,793 1215,791 1216,789 1216,787 1217,785 1217,783 1218,781 1218,779 1219,777 1219,775 1220,774 1220,772 1221,770 1221,768 1222,766 1222,764 1223,762 1223,760 1224,758 1224,756 1225,754 1225,752 1225,750 1226,748 1226,746 1227,744 1227,742 1227,740 1228,738 1228,736 1229,734 1229,733 1229,731 1230,729 1230,727 1230,725 1231,723 1231,721 1231,719 1232,717 1232,715 1232,713 1232,711 1233,709 1233,707 1233,705 1234,703 1234,701 1234,699 1234,697 1235,695 1235,693 1235,691 1235,689 1236,687 1236,685 1236,683 1236,681 1236,679 1236,677 1237,675 1237,673 1237,671 1237,669 1237,667 1237,665 1238,663 1238,661 1238,659 1238,657 1238,655 1238,653 1238,651 1238,649 1238,647 1239,645 1239,643 1239,641 1239,639 1239,637 1239,635 1239,633 1239,631 1239,629 1239,627 1239,625 1239,623 1239,621 " />
<polyline fill="none" vector-effect="non-scaling-stroke" points="792,115 791,113 790,111 789,110 788,108 786,108 784,107 782,108 780,109 778,110 777,112 777,113 777,115 777,117 778,119 779,121 781,122 783,122 785,122 787,122 789,121 790,120 791,118 791,116 792,115 " />
<polyline fill="none" vector-effect="non-scaling-stroke" points="462,115 461,113 460,111 459,110 458,108 456,108 454,107 452,108 450,109 449,110 447,112 447,113 447,115 447,117 448,119 449,121 451,122 453,122 455,122 457,122 459,121 460,120 461,118 461,116 462,115 " />
<polyline fill="none" vector-effect="non-scaling-stroke" points="156,888 155,886 155,884 153,883 152,881 150,881 148,880 146,881 144,882 143,883 142,885 141,886 141,888 141,890 142,892 143,894 145,895 147,895 149,895 151,895 153,894 154,893 155,891 156,889 156,888 " />
<polyline fill="none" vector-effect="non-scaling-stroke" points="1097,888 1097,886 1096,884 1095,883 1093,881 1092,881 1090,880 1088,881 1086,882 1084,883 1083,885 1083,886 1082,888 1083,890 1084,892 1085,894 1087,895 1089,895 1091,895 1093,895 1094,894 1096,893 1097,891 1097,889 1097,888 " />
<polyline fill="none" vector-effect="non-scaling-stroke" points="410,973 409,971 408,969 407,968 406,967 404,966 402,966 400,966 398,967 397,968 395,970 395,972 395,974 395,976 396,977 397,979 399,980 401,981 403,981 405,980 407,979 408,978 409,976 409,974 410,973 " />
<polyline fill="none" vector-effect="non-scaling-stroke" points="844,973 843,971 842,969 841,968 840,967 838,966 836,966 834,966 832,967 830,968 829,970 829,972 829,974 829,976 830,977 831,979 833,980 835,981 837,981 839,980 841,979 842,978 843,976 843,974 844,973 " />
<polyline fill="none" vector-effect="non-scaling-stroke" points="146,621 146,619 145,617 144,616 143,614 141,614 139,614 137,614 135,615 133,616 132,618 132,620 132,622 132,623 133,625 134,627 136,628 138,628 140,628 142,628 143,627 145,626 146,624 146,622 146,621 " />
<polyline fill="none" vector-effect="non-scaling-stroke" points="1106,621 1106,619 1105,617 1104,616 1103,614 1101,614 1099,614 1097,614 1095,615 1093,616 1092,618 1092,620 1092,622 1092,623 1093,625 1094,627 1096,628 1098,628 1100,628 1102,628 1103,627 1105,626 1106,624 1106,622 1106,621 " />
</g>
</g>
</svg>
