<?xml version="1.0" encoding="UTF-8" standalone="no"?>
<svg width="254mm" height="254mm"
 viewBox="0 0 720 720"
 xmlns="http://www.w3.org/2000/svg" xmlns:xlink="http://www.w3.org/1999/xlink"  version="1.2" baseProfile="tiny">
<title>Qt Svg Document</title>
<desc>Generated with Qt</desc>
<defs>
</defs>
<g fill="none" stroke="black" stroke-width="1" fill-rule="evenodd" stroke-linecap="square" stroke-linejoin="bevel" >

<g fill="#ffffff" fill-opacity="1" stroke="none" transform="matrix(1,0,0,1,0,0)"
font-family="Sans" font-size="10" font-weight="400" font-style="normal" 
>
<path vector-effect="non-scaling-stroke" fill-rule="evenodd" d="M0,0 L720,0 L720,720 L0,720 L0,0"/>
</g>

<g fill="none" stroke="#000000" stroke-opacity="1" stroke-width="1" stroke-linecap="round" stroke-linejoin="round" transform="matrix(1,0,0,1,0,0)"
font-family="Sans" font-size="10" font-weight="400" font-style="normal" 
>
<polyline fill="none" vector-effect="non-scaling-stroke" points="367,360 367,358 366,356 365,355 364,353 362,353 360,353 358,353 356,354 354,355 353,357 353,359 353,361 353,363 354,364 355,366 357,367 359,367 361,367 363,367 365,366 366,364 367,363 367,361 367,360 " />
</g>

<g fill="#000000" fill-opacity="1" stroke="none" transform="matrix(1,0,0,1,0,0)"
font-family="Sans" font-size="10" font-weight="400" font-style="normal" 
>
<path vector-effect="non-scaling-stroke" fill-rule="evenodd" d="M360.5,360 C360.5,360.276 360.276,360.5 360,360.5 C359.724,360.5 359.5,360.276 359.5,360 C359.5,359.724 359.724,359.5 360,359.5 C360.276,359.5 360.5,359.724 360.5,360 "/>
</g>

<g fill="none" stroke="#000000" stroke-opacity="1" stroke-width="1" stroke-linecap="round" stroke-linejoin="round" transform="matrix(1,0,0,1,0,0)"
font-family="Sans" font-size="10" font-weight="400" font-style="normal" 
>
<polyline fill="none" vector-effect="non-scaling-stroke" points="144,136 143,134 143,132 141,131 140,130 138,129 136,129 134,129 132,130 131,131 130,133 129,135 129,137 129,139 130,141 132,142 133,143 135,144 137,144 139,143 141,142 142,141 143,139 144,137 144,136 " />
<polyline fill="none" vector-effect="non-scaling-stroke" points="144,211 143,209 143,207 141,205 140,204 138,204 136,203 134,204 132,205 131,206 130,208 129,209 129,211 129,213 130,215 132,217 133,218 135,218 137,218 139,218 141,217 142,215 143,213 144,212 144,211 " />
<polyline fill="none" vector-effect="non-scaling-stroke" points="144,285 143,283 143,282 141,280 140,279 138,278 136,278 134,278 132,279 131,281 130,282 129,284 129,286 129,288 130,290 132,291 133,292 135,293 137,293 139,292 141,291 142,290 143,288 144,286 144,285 " />
<polyline fill="none" vector-effect="non-scaling-stroke" points="144,360 143,358 143,356 141,355 140,353 138,353 136,353 134,353 132,354 131,355 130,357 129,359 129,361 129,363 130,364 132,366 133,367 135,367 137,367 139,367 141,366 142,364 143,363 144,361 144,360 " />
<polyline fill="none" vector-effect="non-scaling-stroke" points="144,435 143,433 143,431 141,429 140,428 138,427 136,427 134,428 132,428 131,430 130,431 129,433 129,435 129,437 130,439 132,440 133,441 135,442 137,442 139,441 141,440 142,439 143,437 144,435 " />
<polyline fill="none" vector-effect="non-scaling-stroke" points="144,509 143,507 143,505 141,504 140,503 138,502 136,502 134,502 132,503 131,504 130,506 129,508 129,510 129,512 130,514 132,515 133,516 135,517 137,517 139,516 141,515 142,514 143,512 144,510 144,509 " />
<polyline fill="none" vector-effect="non-scaling-stroke" points="144,584 143,582 143,580 141,578 140,577 138,577 136,576 134,577 132,578 131,579 130,581 129,582 129,584 129,586 130,588 132,590 133,591 135,591 137,591 139,591 141,590 142,588 143,586 144,584 " />
<polyline fill="none" vector-effect="non-scaling-stroke" points="218,62 218,60 217,58 216,56 214,55 213,54 211,54 209,55 207,55 205,57 204,58 204,60 203,62 204,64 205,66 206,67 208,68 210,69 212,69 214,69 216,67 217,66 218,64 218,62 " />
<polyline fill="none" vector-effect="non-scaling-stroke" points="218,136 218,134 217,132 216,131 214,130 213,129 211,129 209,129 207,130 205,131 204,133 204,135 203,137 204,139 205,141 206,142 208,143 210,144 212,144 214,143 216,142 217,141 218,139 218,137 218,136 " />
<polyline fill="none" vector-effect="non-scaling-stroke" points="218,211 218,209 217,207 216,205 214,204 213,204 211,203 209,204 207,205 205,206 204,208 204,209 203,211 204,213 205,215 206,217 208,218 210,218 212,218 214,218 216,217 217,215 218,213 218,212 218,211 " />
<polyline fill="none" vector-effect="non-scaling-stroke" points="218,285 218,283 217,282 216,280 214,279 213,278 211,278 209,278 207,279 205,281 204,282 204,284 203,286 204,288 205,290 206,291 208,292 210,293 212,293 214,292 216,291 217,290 218,288 218,286 218,285 " />
<polyline fill="none" vector-effect="non-scaling-stroke" points="218,360 218,358 217,356 216,355 214,353 213,353 211,353 209,353 207,354 205,355 204,357 204,359 203,361 204,363 205,364 206,366 208,367 210,367 212,367 214,367 216,366 217,364 218,363 218,361 218,360 " />
<polyline fill="none" vector-effect="non-scaling-stroke" points="218,435 218,433 217,431 216,429 214,428 213,427 211,427 209,428 207,428 205,430 204,431 204,433 203,435 204,437 205,439 206,440 208,441 210,442 212,442 214,441 216,440 217,439 218,437 218,435 " />
<polyline fill="none" vector-effect="non-scaling-stroke" points="218,509 218,507 217,505 216,504 214,503 213,502 211,502 209,502 207,503 205,504 204,506 204,508 203,510 204,512 205,514 206,515 208,516 210,517 212,517 214,516 216,515 217,514 218,512 218,510 218,509 " />
<polyline fill="none" vector-effect="non-scaling-stroke" points="218,584 218,582 217,580 216,578 214,577 213,577 211,576 209,577 207,578 205,579 204,581 204,582 203,584 204,586 205,588 206,590 208,591 210,591 212,591 214,591 216,590 217,588 218,586 218,584 " />
<polyline fill="none" vector-effect="non-scaling-stroke" points="218,658 218,656 217,655 216,653 214,652 213,651 211,651 209,651 207,652 205,653 204,655 204,657 203,659 204,661 205,663 206,664 208,665 210,666 212,666 214,665 216,664 217,663 218,661 218,659 218,658 " />
<polyline fill="none" vector-effect="non-scaling-stroke" points="293,62 293,60 292,58 291,56 289,55 287,54 285,54 283,55 281,55 280,57 279,58 278,60 278,62 279,64 279,66 281,67 283,68 284,69 286,69 288,69 290,67 291,66 292,64 293,62 " />
<polyline fill="none" vector-effect="non-scaling-stroke" points="293,136 293,134 292,132 291,131 289,130 287,129 285,129 283,129 281,130 280,131 279,133 278,135 278,137 279,139 279,141 281,142 283,143 284,144 286,144 288,143 290,142 291,141 292,139 293,137 293,136 " />
<polyline fill="none" vector-effect="non-scaling-stroke" points="293,211 293,209 292,207 291,205 289,204 287,204 285,203 283,204 281,205 280,206 279,208 278,209 278,211 279,213 279,215 281,217 283,218 284,218 286,218 288,218 290,217 291,215 292,213 293,212 293,211 " />
<polyline fill="none" vector-effect="non-scaling-stroke" points="293,285 293,283 292,282 291,280 289,279 287,278 285,278 283,278 281,279 280,281 279,282 278,284 278,286 279,288 279,290 281,291 283,292 284,293 286,293 288,292 290,291 291,290 292,288 293,286 293,285 " />
<polyline fill="none" vector-effect="non-scaling-stroke" points="293,360 293,358 292,356 291,355 289,353 287,353 285,353 283,353 281,354 280,355 279,357 278,359 278,361 279,363 279,364 281,366 283,367 284,367 286,367 288,367 290,366 291,364 292,363 293,361 293,360 " />
<polyline fill="none" vector-effect="non-scaling-stroke" points="293,435 293,433 292,431 291,429 289,428 287,427 285,427 283,428 281,428 280,430 279,431 278,433 278,435 279,437 279,439 281,440 283,441 284,442 286,442 288,441 290,440 291,439 292,437 293,435 " />
<polyline fill="none" vector-effect="non-scaling-stroke" points="293,509 293,507 292,505 291,504 289,503 287,502 285,502 283,502 281,503 280,504 279,506 278,508 278,510 279,512 279,514 281,515 283,516 284,517 286,517 288,516 290,515 291,514 292,512 293,510 293,509 " />
<polyline fill="none" vector-effect="non-scaling-stroke" points="293,584 293,582 292,580 291,578 289,577 287,577 285,576 283,577 281,578 280,579 279,581 278,582 278,584 279,586 279,588 281,590 283,591 284,591 286,591 288,591 290,590 291,588 292,586 293,584 " />
<polyline fill="none" vector-effect="non-scaling-stroke" points="293,658 293,656 292,655 291,653 289,652 287,651 285,651 283,651 281,652 280,653 279,655 278,657 278,659 279,661 279,663 281,664 283,665 284,666 286,666 288,665 290,664 291,663 292,661 293,659 293,658 " />
<polyline fill="none" vector-effect="non-scaling-stroke" points="367,62 367,60 366,58 365,56 364,55 362,54 360,54 358,55 356,55 354,57 353,58 353,60 353,62 353,64 354,66 355,67 357,68 359,69 361,69 363,69 365,67 366,66 367,64 367,62 " />
<polyline fill="none" vector-effect="non-scaling-stroke" points="367,136 367,134 366,132 365,131 364,130 362,129 360,129 358,129 356,130 354,131 353,133 353,135 353,137 353,139 354,141 355,142 357,143 359,144 361,144 363,143 365,142 366,141 367,139 367,137 367,136 " />
<polyline fill="none" vector-effect="non-scaling-stroke" points="367,211 367,209 366,207 365,205 364,204 362,204 360,203 358,204 356,205 354,206 353,208 353,209 353,211 353,213 354,215 355,217 357,218 359,218 361,218 363,218 365,217 366,215 367,213 367,212 367,211 " />
<polyline fill="none" vector-effect="non-scaling-stroke" points="367,285 367,283 366,282 365,280 364,279 362,278 360,278 358,278 356,279 354,281 353,282 353,284 353,286 353,288 354,290 355,291 357,292 359,293 361,293 363,292 365,291 366,290 367,288 367,286 367,285 " />
<polyline fill="none" vector-effect="non-scaling-stroke" points="367,360 367,358 366,356 365,355 364,353 362,353 360,353 358,353 356,354 354,355 353,357 353,359 353,361 353,363 354,364 355,366 357,367 359,367 361,367 363,367 365,366 366,364 367,363 367,361 367,360 " />
<polyline fill="none" vector-effect="non-scaling-stroke" points="367,435 367,433 366,431 365,429 364,428 362,427 360,427 358,428 356,428 354,430 353,431 353,433 353,435 353,437 354,439 355,440 357,441 359,442 361,442 363,441 365,440 366,439 367,437 367,435 " />
<polyline fill="none" vector-effect="non-scaling-stroke" points="367,509 367,507 366,505 365,504 364,503 362,502 360,502 358,502 356,503 354,504 353,506 353,508 353,510 353,512 354,514 355,515 357,516 359,517 361,517 363,516 365,515 366,514 367,512 367,510 367,509 " />
<polyline fill="none" vector-effect="non-scaling-stroke" points="367,584 367,582 366,580 365,578 364,577 362,577 360,576 358,577 356,578 354,579 353,581 353,582 353,584 353,586 354,588 355,590 357,591 359,591 361,591 363,591 365,590 366,588 367,586 367,584 " />
<polyline fill="none" vector-effect="non-scaling-stroke" points="367,658 367,656 366,655 365,653 364,652 362,651 360,651 358,651 356,652 354,653 353,655 353,657 353,659 353,661 354,663 355,664 357,665 359,666 361,666 363,665 365,664 366,663 367,661 367,659 367,658 " />
<polyline fill="none" vector-effect="non-scaling-stroke" points="442,62 442,60 441,58 440,56 438,55 436,54 434,54 432,55 431,55 429,57 428,58 427,60 427,62 428,64 429,66 430,67 432,68 434,69 436,69 438,69 439,67 441,66 442,64 442,62 " />
<polyline fill="none" vector-effect="non-scaling-stroke" points="442,285 442,283 441,282 440,280 438,279 436,278 434,278 432,278 431,279 429,281 428,282 427,284 427,286 428,288 429,290 430,291 432,292 434,293 436,293 438,292 439,291 441,290 442,288 442,286 442,285 " />
<polyline fill="none" vector-effect="non-scaling-stroke" points="442,360 442,358 441,356 440,355 438,353 436,353 434,353 432,353 431,354 429,355 428,357 427,359 427,361 428,363 429,364 430,366 432,367 434,367 436,367 438,367 439,366 441,364 442,363 442,361 442,360 " />
<polyline fill="none" vector-effect="non-scaling-stroke" points="442,435 442,433 441,431 440,429 438,428 436,427 434,427 432,428 431,428 429,430 428,431 427,433 427,435 428,437 429,439 430,440 432,441 434,442 436,442 438,441 439,440 441,439 442,437 442,435 " />
<polyline fill="none" vector-effect="non-scaling-stroke" points="442,509 442,507 441,505 440,504 438,503 436,502 434,502 432,502 431,503 429,504 428,506 427,508 427,510 428,512 429,514 430,515 432,516 434,517 436,517 438,516 439,515 441,514 442,512 442,510 442,509 " />
<polyline fill="none" vector-effect="non-scaling-stroke" points="442,584 442,582 441,580 440,578 438,577 436,577 434,576 432,577 431,578 429,579 428,581 427,582 427,584 428,586 429,588 430,590 432,591 434,591 436,591 438,591 439,590 441,588 442,586 442,584 " />
<polyline fill="none" vector-effect="non-scaling-stroke" points="442,658 442,656 441,655 440,653 438,652 436,651 434,651 432,651 431,652 429,653 428,655 427,657 427,659 428,661 429,663 430,664 432,665 434,666 436,666 438,665 439,664 441,663 442,661 442,659 442,658 " />
<polyline fill="none" vector-effect="non-scaling-stroke" points="517,62 516,60 516,58 514,56 513,55 511,54 509,54 507,55 505,55 504,57 503,58 502,60 502,62 502,64 503,66 505,67 506,68 508,69 510,69 512,69 514,67 515,66 516,64 517,62 " />
<polyline fill="none" vector-effect="non-scaling-stroke" points="517,136 516,134 516,132 514,131 513,130 511,129 509,129 507,129 505,130 504,131 503,133 502,135 502,137 502,139 503,141 505,142 506,143 508,144 510,144 512,143 514,142 515,141 516,139 517,137 517,136 " />
<polyline fill="none" vector-effect="non-scaling-stroke" points="517,211 516,209 516,207 514,205 513,204 511,204 509,203 507,204 505,205 504,206 503,208 502,209 502,211 502,213 503,215 505,217 506,218 508,218 510,218 512,218 514,217 515,215 516,213 517,212 517,211 " />
<polyline fill="none" vector-effect="non-scaling-stroke" points="517,285 516,283 516,282 514,280 513,279 511,278 509,278 507,278 505,279 504,281 503,282 502,284 502,286 502,288 503,290 505,291 506,292 508,293 510,293 512,292 514,291 515,290 516,288 517,286 517,285 " />
<polyline fill="none" vector-effect="non-scaling-stroke" points="517,360 516,358 516,356 514,355 513,353 511,353 509,353 507,353 505,354 504,355 503,357 502,359 502,361 502,363 503,364 505,366 506,367 508,367 510,367 512,367 514,366 515,364 516,363 517,361 517,360 " />
<polyline fill="none" vector-effect="non-scaling-stroke" points="517,435 516,433 516,431 514,429 513,428 511,427 509,427 507,428 505,428 504,430 503,431 502,433 502,435 502,437 503,439 505,440 506,441 508,442 510,442 512,441 514,440 515,439 516,437 517,435 " />
<polyline fill="none" vector-effect="non-scaling-stroke" points="517,509 516,507 516,505 514,504 513,503 511,502 509,502 507,502 505,503 504,504 503,506 502,508 502,510 502,512 503,514 505,515 506,516 508,517 510,517 512,516 514,515 515,514 516,512 517,510 517,509 " />
<polyline fill="none" vector-effect="non-scaling-stroke" points="517,584 516,582 516,580 514,578 513,577 511,577 509,576 507,577 505,578 504,579 503,581 502,582 502,584 502,586 503,588 505,590 506,591 508,591 510,591 512,591 514,590 515,588 516,586 517,584 " />
<polyline fill="none" vector-effect="non-scaling-stroke" points="517,658 516,656 516,655 514,653 513,652 511,651 509,651 507,651 505,652 504,653 503,655 502,657 502,659 502,661 503,663 505,664 506,665 508,666 510,666 512,665 514,664 515,663 516,661 517,659 517,658 " />
<polyline fill="none" vector-effect="non-scaling-stroke" points="591,136 591,134 590,132 589,131 587,130 585,129 583,129 582,129 580,130 578,131 577,133 577,135 576,137 577,139 578,141 579,142 581,143 583,144 585,144 587,143 588,142 590,141 591,139 591,137 591,136 " />
<polyline fill="none" vector-effect="non-scaling-stroke" points="591,211 591,209 590,207 589,205 587,204 585,204 583,203 582,204 580,205 578,206 577,208 577,209 576,211 577,213 578,215 579,217 581,218 583,218 585,218 587,218 588,217 590,215 591,213 591,212 591,211 " />
<polyline fill="none" vector-effect="non-scaling-stroke" points="591,285 591,283 590,282 589,280 587,279 585,278 583,278 582,278 580,279 578,281 577,282 577,284 576,286 577,288 578,290 579,291 581,292 583,293 585,293 587,292 588,291 590,290 591,288 591,286 591,285 " />
<polyline fill="none" vector-effect="non-scaling-stroke" points="591,360 591,358 590,356 589,355 587,353 585,353 583,353 582,353 580,354 578,355 577,357 577,359 576,361 577,363 578,364 579,366 581,367 583,367 585,367 587,367 588,366 590,364 591,363 591,361 591,360 " />
<polyline fill="none" vector-effect="non-scaling-stroke" points="591,435 591,433 590,431 589,429 587,428 585,427 583,427 582,428 580,428 578,430 577,431 577,433 576,435 577,437 578,439 579,440 581,441 583,442 585,442 587,441 588,440 590,439 591,437 591,435 " />
<polyline fill="none" vector-effect="non-scaling-stroke" points="591,509 591,507 590,505 589,504 587,503 585,502 583,502 582,502 580,503 578,504 577,506 577,508 576,510 577,512 578,514 579,515 581,516 583,517 585,517 587,516 588,515 590,514 591,512 591,510 591,509 " />
<polyline fill="none" vector-effect="non-scaling-stroke" points="591,584 591,582 590,580 589,578 587,577 585,577 583,576 582,577 580,578 578,579 577,581 577,582 576,584 577,586 578,588 579,590 581,591 583,591 585,591 587,591 588,590 590,588 591,586 591,584 " />
<polyline fill="none" vector-effect="non-scaling-stroke" points="442,211 442,209 441,207 440,205 438,204 436,204 434,203 432,204 431,205 429,206 428,208 427,209 427,211 428,213 429,215 430,217 432,218 434,218 436,218 438,218 439,217 441,215 442,213 442,212 442,211 " />
<polyline fill="none" vector-effect="non-scaling-stroke" points="442,136 442,134 441,132 440,131 438,130 436,129 434,129 432,129 431,130 429,131 428,133 427,135 427,137 428,139 429,141 430,142 432,143 434,144 436,144 438,143 439,142 441,141 442,139 442,137 442,136 " />
<polyline fill="none" vector-effect="non-scaling-stroke" points="67,211 67,209 66,208 65,206 63,205 61,204 59,204 57,204 55,205 54,207 53,208 52,210 52,212 53,214 54,216 55,217 57,218 59,219 61,219 62,218 64,217 66,216 67,214 67,212 67,211 " />
<polyline fill="none" vector-effect="non-scaling-stroke" points="67,286 67,284 66,282 65,281 63,279 61,279 59,279 57,279 55,280 54,281 53,283 52,285 52,287 53,289 54,290 55,292 57,293 59,293 61,293 62,293 64,292 66,290 67,289 67,287 67,286 " />
<polyline fill="none" vector-effect="non-scaling-stroke" points="67,361 67,359 66,357 65,355 63,354 61,353 59,353 57,354 55,354 54,356 53,357 52,359 52,361 53,363 54,365 55,366 57,367 59,368 61,368 62,367 64,366 66,365 67,363 67,361 " />
<polyline fill="none" vector-effect="non-scaling-stroke" points="67,435 67,433 66,431 65,430 63,429 61,428 59,428 57,428 55,429 54,430 53,432 52,434 52,436 53,438 54,440 55,441 57,442 59,443 61,443 62,442 64,441 66,440 67,438 67,436 67,435 " />
<polyline fill="none" vector-effect="non-scaling-stroke" points="67,510 67,508 66,506 65,504 63,503 61,503 59,502 57,503 55,504 54,505 53,507 52,508 52,510 53,512 54,514 55,516 57,517 59,517 61,517 62,517 64,516 66,514 67,512 67,510 " />
<polyline fill="none" vector-effect="non-scaling-stroke" points="668,211 668,209 667,208 666,206 664,205 662,204 660,204 658,204 656,205 655,207 654,208 653,210 653,212 653,214 654,216 656,217 657,218 659,219 661,219 663,218 665,217 666,216 667,214 668,212 668,211 " />
<polyline fill="none" vector-effect="non-scaling-stroke" points="668,286 668,284 667,282 666,281 664,279 662,279 660,279 658,279 656,280 655,281 654,283 653,285 653,287 653,289 654,290 656,292 657,293 659,293 661,293 663,293 665,292 666,290 667,289 668,287 668,286 " />
<polyline fill="none" vector-effect="non-scaling-stroke" points="668,361 668,359 667,357 666,355 664,354 662,353 660,353 658,354 656,354 655,356 654,357 653,359 653,361 653,363 654,365 656,366 657,367 659,368 661,368 663,367 665,366 666,365 667,363 668,361 " />
<polyline fill="none" vector-effect="non-scaling-stroke" points="668,435 668,433 667,431 666,430 664,429 662,428 660,428 658,428 656,429 655,430 654,432 653,434 653,436 653,438 654,440 656,441 657,442 659,443 661,443 663,442 665,441 666,440 667,438 668,436 668,435 " />
<polyline fill="none" vector-effect="non-scaling-stroke" points="718,360 718,358 718,356 718,354 718,352 718,350 718,348 718,346 718,344 718,342 717,340 717,338 717,336 717,334 717,332 717,330 717,328 716,326 716,324 716,322 716,320 716,318 715,316 715,314 715,312 715,310 714,308 714,306 714,304 713,302 713,300 713,298 712,296 712,294 712,292 711,290 711,288 710,287 710,285 710,283 709,281 709,279 708,277 708,275 707,273 707,271 706,269 706,267 705,265 705,263 704,261 704,259 703,257 702,256 702,254 701,252 701,250 700,248 699,246 699,244 698,242 697,240 697,238 696,237 695,235 695,233 694,231 693,229 692,227 692,225 691,224 690,222 689,220 689,218 688,216 687,214 686,213 685,211 685,209 684,207 683,205 682,203 681,202 680,200 679,198 678,196 677,195 677,193 676,191 675,189 674,187 673,186 672,184 671,182 670,181 669,179 668,177 667,175 666,174 665,172 664,170 663,169 661,167 660,165 659,164 658,162 657,160 656,159 655,157 654,155 653,154 651,152 650,150 649,149 648,147 647,145 645,144 644,142 643,141 642,139 641,138 639,136 638,134 637,133 635,131 634,130 633,128 632,127 630,125 629,124 628,122 626,121 625,119 624,118 622,116 621,115 620,113 618,112 617,111 615,109 614,108 613,106 611,105 610,103 608,102 607,101 605,99 604,98 602,97 601,95 599,94 598,93 596,91 595,90 593,89 592,87 590,86 589,85 587,83 586,82 584,81 583,80 581,78 580,77 578,76 576,75 575,74 573,72 572,71 570,70 568,69 567,68 565,67 563,65 562,64 560,63 558,62 557,61 555,60 553,59 552,58 550,57 548,56 547,55 545,53 543,52 542,51 540,50 538,49 536,48 535,47 533,46 531,46 529,45 528,44 526,43 524,42 522,41 520,40 519,39 517,38 515,37 513,36 511,36 510,35 508,34 506,33 504,32 502,31 500,31 499,30 497,29 495,28 493,28 491,27 489,26 487,25 486,25 484,24 482,23 480,23 478,22 476,21 474,21 472,20 471,19 469,19 467,18 465,18 463,17 461,17 459,16 457,15 455,15 453,14 451,14 449,13 447,13 446,12 444,12 442,11 440,11 438,11 436,10 434,10 432,9 430,9 428,9 426,8 424,8 422,7 420,7 418,7 416,6 414,6 412,6 410,6 408,5 406,5 404,5 402,5 400,4 398,4 396,4 394,4 392,3 390,3 388,3 386,3 384,3 382,3 380,3 378,2 376,2 374,2 372,2 370,2 368,2 366,2 364,2 362,2 360,2 358,2 356,2 354,2 352,2 350,2 348,2 346,2 344,2 342,2 340,3 338,3 336,3 334,3 332,3 330,3 328,3 326,4 324,4 322,4 320,4 318,4 316,5 314,5 312,5 311,5 309,6 307,6 305,6 303,7 301,7 299,7 297,8 295,8 293,8 291,9 289,9 287,10 285,10 283,10 281,11 279,11 277,12 275,12 273,13 271,13 269,14 267,14 265,15 264,15 262,16 260,16 258,17 256,17 254,18 252,19 250,19 248,20 246,21 244,21 243,22 241,22 239,23 237,24 235,25 233,25 231,26 229,27 228,27 226,28 224,29 222,30 220,30 218,31 216,32 215,33 213,34 211,34 209,35 207,36 206,37 204,38 202,39 200,40 198,41 197,41 195,42 193,43 191,44 190,45 188,46 186,47 184,48 183,49 181,50 179,51 177,52 176,53 174,54 172,55 171,56 169,57 167,58 165,59 164,61 162,62 160,63 159,64 157,65 156,66 154,67 152,68 151,70 149,71 147,72 146,73 144,74 143,76 141,77 139,78 138,79 136,81 135,82 133,83 132,84 130,86 129,87 127,88 126,89 124,91 123,92 121,93 120,95 118,96 117,97 115,99 114,100 112,102 111,103 109,104 108,106 107,107 105,109 104,110 102,111 101,113 100,114 98,116 97,117 95,119 94,120 93,122 91,123 90,125 89,126 88,128 86,129 85,131 84,132 82,134 81,135 80,137 79,139 77,140 76,142 75,143 74,145 73,147 71,148 70,150 69,151 68,153 67,155 66,156 64,158 63,160 62,161 61,163 60,165 59,166 58,168 57,170 56,171 55,173 54,175 53,176 52,178 51,180 50,182 49,183 48,185 47,187 46,189 45,190 44,192 43,194 42,196 41,197 40,199 39,201 38,203 37,205 37,206 36,208 35,210 34,212 33,214 32,216 32,217 31,219 30,221 29,223 29,225 28,227 27,228 26,230 26,232 25,234 24,236 23,238 23,240 22,242 21,243 21,245 20,247 20,249 19,251 18,253 18,255 17,257 17,259 16,261 16,263 15,264 14,266 14,268 13,270 13,272 12,274 12,276 12,278 11,280 11,282 10,284 10,286 9,288 9,290 9,292 8,294 8,296 7,298 7,300 7,302 6,304 6,306 6,307 6,309 5,311 5,313 5,315 5,317 4,319 4,321 4,323 4,325 3,327 3,329 3,331 3,333 3,335 3,337 3,339 2,341 2,343 2,345 2,347 2,349 2,351 2,353 2,355 2,357 2,359 2,361 2,363 2,365 2,367 2,369 2,371 2,373 2,375 2,377 3,379 3,381 3,383 3,385 3,387 3,389 3,391 4,393 4,395 4,397 4,399 4,401 5,403 5,405 5,407 5,409 6,411 6,413 6,415 7,417 7,419 7,421 8,423 8,425 8,427 9,429 9,431 9,433 10,435 10,437 11,439 11,441 12,443 12,445 13,446 13,448 14,450 14,452 15,454 15,456 16,458 16,460 17,462 17,464 18,466 19,468 19,470 20,471 20,473 21,475 22,477 22,479 23,481 24,483 24,485 25,487 26,488 27,490 27,492 28,494 29,496 30,498 30,500 31,501 32,503 33,505 34,507 34,509 35,510 36,512 37,514 38,516 39,518 39,519 40,521 41,523 42,525 43,527 44,528 45,530 46,532 47,534 48,535 49,537 50,539 51,541 52,542 53,544 54,546 55,547 56,549 57,551 58,553 59,554 60,556 61,558 63,559 64,561 65,563 66,564 67,566 68,567 69,569 71,571 72,572 73,574 74,576 75,577 77,579 78,580 79,582 80,583 82,585 83,587 84,588 85,590 87,591 88,593 89,594 91,596 92,597 93,599 95,600 96,602 97,603 99,605 100,606 101,608 103,609 104,610 106,612 107,613 108,615 110,616 111,617 113,619 114,620 116,622 117,623 119,624 120,626 121,627 123,628 124,630 126,631 128,632 129,634 131,635 132,636 134,637 135,639 137,640 138,641 140,642 141,644 143,645 145,646 146,647 148,648 149,650 151,651 153,652 154,653 156,654 158,655 159,656 161,658 163,659 164,660 166,661 168,662 169,663 171,664 173,665 174,666 176,667 178,668 180,669 181,670 183,671 185,672 187,673 188,674 190,675 192,676 194,677 195,678 197,679 199,680 201,681 203,682 204,682 206,683 208,684 210,685 212,686 213,687 215,687 217,688 219,689 221,690 223,691 224,691 226,692 228,693 230,694 232,694 234,695 236,696 237,696 239,697 241,698 243,698 245,699 247,700 249,700 251,701 253,702 255,702 256,703 258,703 260,704 262,704 264,705 266,705 268,706 270,706 272,707 274,707 276,708 278,708 280,709 282,709 284,710 286,710 287,711 289,711 291,711 293,712 295,712 297,712 299,713 301,713 303,713 305,714 307,714 309,714 311,715 313,715 315,715 317,715 319,716 321,716 323,716 325,716 327,716 329,717 331,717 333,717 335,717 337,717 339,717 341,717 343,718 345,718 347,718 349,718 351,718 353,718 355,718 357,718 359,718 361,718 363,718 365,718 367,718 369,718 371,718 373,718 375,718 377,718 379,717 381,717 383,717 385,717 387,717 389,717 391,717 393,716 395,716 397,716 399,716 401,716 403,715 405,715 407,715 409,715 411,714 413,714 415,714 417,713 419,713 421,713 423,712 425,712 427,712 429,711 431,711 432,711 434,710 436,710 438,709 440,709 442,708 444,708 446,707 448,707 450,707 452,706 454,705 456,705 458,704 460,704 462,703 463,703 465,702 467,702 469,701 471,700 473,700 475,699 477,698 479,698 481,697 482,696 484,696 486,695 488,694 490,694 492,693 494,692 496,691 497,691 499,690 501,689 503,688 505,687 507,687 508,686 510,685 512,684 514,683 516,682 517,682 519,681 521,680 523,679 525,678 526,677 528,676 530,675 532,674 533,673 535,672 537,671 539,670 540,669 542,668 544,667 545,666 547,665 549,664 551,663 552,662 554,661 556,660 557,659 559,658 561,657 562,655 564,654 566,653 567,652 569,651 570,650 572,648 574,647 575,646 577,645 578,644 580,642 582,641 583,640 585,639 586,637 588,636 589,635 591,634 592,632 594,631 595,630 597,628 598,627 600,626 601,624 603,623 604,622 606,620 607,619 609,617 610,616 612,615 613,613 614,612 616,610 617,609 619,608 620,606 621,605 623,603 624,602 625,600 627,599 628,597 629,596 631,594 632,593 633,591 635,590 636,588 637,587 638,585 640,584 641,582 642,580 643,579 645,577 646,576 647,574 648,572 649,571 651,569 652,568 653,566 654,564 655,563 656,561 657,559 658,558 660,556 661,554 662,553 663,551 664,549 665,548 666,546 667,544 668,542 669,541 670,539 671,537 672,535 673,534 674,532 675,530 676,528 677,527 678,525 679,523 680,521 680,520 681,518 682,516 683,514 684,512 685,511 686,509 686,507 687,505 688,503 689,501 690,500 690,498 691,496 692,494 693,492 693,490 694,488 695,487 696,485 696,483 697,481 698,479 698,477 699,475 700,473 700,471 701,470 701,468 702,466 703,464 703,462 704,460 704,458 705,456 705,454 706,452 706,450 707,448 707,447 708,445 708,443 709,441 709,439 710,437 710,435 711,433 711,431 711,429 712,427 712,425 712,423 713,421 713,419 713,417 714,415 714,413 714,411 715,409 715,407 715,405 715,403 716,401 716,399 716,397 716,395 716,393 717,391 717,389 717,387 717,385 717,383 717,381 717,379 718,377 718,375 718,373 718,371 718,369 718,367 718,365 718,363 718,361 718,360 " />
<polyline fill="none" vector-effect="non-scaling-stroke" points="692,496 690,495 688,494 687,493 685,493 683,492 681,492 679,492 677,491 675,491 673,491 671,491 669,492 667,492 665,492 663,493 661,493 659,494 657,495 656,496 654,497 652,498 650,499 649,500 647,501 646,503 644,504 643,506 642,507 641,509 640,511 639,512 638,514 637,516 636,518 636,520 635,522 635,524 634,526 634,528 634,530 634,532 634,534 634,536 635,538 635,539 635,541 636,543 637,545 637,547 638,549 639,551 640,552 641,554 643,556 644,557 645,559 647,560 648,561 650,563 651,564 653,565 " />
</g>
</g>
</svg>
