<?xml version="1.0" encoding="UTF-8" standalone="no"?>
<svg width="437.444mm" height="437.444mm"
 viewBox="0 0 1240 1240"
 xmlns="http://www.w3.org/2000/svg" xmlns:xlink="http://www.w3.org/1999/xlink"  version="1.2" baseProfile="tiny">
<title>Qt Svg Document</title>
<desc>Generated with Qt</desc>
<defs>
</defs>
<g fill="none" stroke="black" stroke-width="1" fill-rule="evenodd" stroke-linecap="square" stroke-linejoin="bevel" >

<g fill="#ffffff" fill-opacity="1" stroke="none" transform="matrix(1,0,0,1,0,0)"
font-family="Sans" font-size="10" font-weight="400" font-style="normal" 
>
<path vector-effect="non-scaling-stroke" fill-rule="evenodd" d="M0,0 L1240,0 L1240,1240 L0,1240 L0,0"/>
</g>

<g fill="none" stroke="#000000" stroke-opacity="1" stroke-width="1" stroke-linecap="round" stroke-linejoin="round" transform="matrix(1,0,0,1,0,0)"
font-family="Sans" font-size="10" font-weight="400" font-style="normal" 
>
<polyline fill="none" vector-effect="non-scaling-stroke" points="1238,620 1238,618 1238,616 1238,614 1238,612 1238,610 1238,608 1238,606 1238,604 1238,602 1238,600 1238,598 1238,596 1237,594 1237,592 1237,590 1237,588 1237,586 1237,584 1237,582 1237,580 1237,578 1236,576 1236,574 1236,572 1236,570 1236,568 1236,566 1235,564 1235,562 1235,560 1235,558 1235,556 1234,554 1234,552 1234,550 1234,548 1234,546 1233,544 1233,542 1233,540 1233,538 1232,536 1232,534 1232,532 1231,530 1231,528 1231,526 1231,524 1230,522 1230,520 1230,518 1229,516 1229,515 1229,513 1228,511 1228,509 1228,507 1227,505 1227,503 1226,501 1226,499 1226,497 1225,495 1225,493 1224,491 1224,489 1224,487 1223,485 1223,483 1222,481 1222,479 1221,477 1221,475 1220,473 1220,471 1219,470 1219,468 1218,466 1218,464 1217,462 1217,460 1216,458 1216,456 1215,454 1215,452 1214,450 1214,448 1213,446 1213,444 1212,443 1211,441 1211,439 1210,437 1210,435 1209,433 1208,431 1208,429 1207,427 1207,425 1206,423 1205,422 1205,420 1204,418 1203,416 1203,414 1202,412 1201,410 1201,408 1200,406 1199,405 1199,403 1198,401 1197,399 1196,397 1196,395 1195,393 1194,392 1193,390 1193,388 1192,386 1191,384 1190,382 1190,380 1189,379 1188,377 1187,375 1187,373 1186,371 1185,369 1184,368 1183,366 1182,364 1182,362 1181,360 1180,359 1179,357 1178,355 1177,353 1177,351 1176,349 1175,348 1174,346 1173,344 1172,342 1171,341 1170,339 1169,337 1168,335 1168,333 1167,332 1166,330 1165,328 1164,326 1163,325 1162,323 1161,321 1160,319 1159,318 1158,316 1157,314 1156,312 1155,311 1154,309 1153,307 1152,305 1151,304 1150,302 1149,300 1148,299 1147,297 1146,295 1145,293 1144,292 1143,290 1142,288 1140,287 1139,285 1138,283 1137,282 1136,280 1135,278 1134,277 1133,275 1132,273 1131,272 1129,270 1128,268 1127,267 1126,265 1125,263 1124,262 1122,260 1121,259 1120,257 1119,255 1118,254 1117,252 1115,251 1114,249 1113,247 1112,246 1111,244 1109,243 1108,241 1107,239 1106,238 1104,236 1103,235 1102,233 1101,232 1099,230 1098,228 1097,227 1096,225 1094,224 1093,222 1092,221 1090,219 1089,218 1088,216 1087,215 1085,213 1084,212 1083,210 1081,209 1080,207 1079,206 1077,204 1076,203 1075,201 1073,200 1072,198 1070,197 1069,195 1068,194 1066,193 1065,191 1064,190 1062,188 1061,187 1059,185 1058,184 1057,183 1055,181 1054,180 1052,178 1051,177 1049,176 1048,174 1047,173 1045,171 1044,170 1042,169 1041,167 1039,166 1038,165 1036,163 1035,162 1033,161 1032,159 1030,158 1029,157 1027,155 1026,154 1024,153 1023,151 1021,150 1020,149 1018,147 1017,146 1015,145 1014,144 1012,142 1011,141 1009,140 1007,139 1006,137 1004,136 1003,135 1001,134 1000,132 998,131 996,130 995,129 993,127 992,126 990,125 988,124 987,123 985,121 984,120 982,119 980,118 979,117 977,116 975,114 974,113 972,112 971,111 969,110 967,109 966,108 964,107 962,105 961,104 959,103 957,102 956,101 954,100 952,99 951,98 949,97 947,96 945,95 944,94 942,93 940,92 939,90 937,89 935,88 933,87 932,86 930,85 928,84 927,83 925,82 923,81 921,80 920,79 918,78 916,78 914,77 913,76 911,75 909,74 907,73 905,72 904,71 902,70 900,69 898,68 897,67 895,66 893,66 891,65 889,64 888,63 886,62 884,61 882,60 880,60 879,59 877,58 875,57 873,56 871,55 869,55 868,54 866,53 864,52 862,51 860,51 858,50 857,49 855,48 853,48 851,47 849,46 847,45 845,45 844,44 842,43 840,42 838,42 836,41 834,40 832,40 830,39 829,38 827,38 825,37 823,36 821,36 819,35 817,34 815,34 813,33 812,32 810,32 808,31 806,31 804,30 802,29 800,29 798,28 796,28 794,27 792,27 791,26 789,25 787,25 785,24 783,24 781,23 779,23 777,22 775,22 773,21 771,21 769,20 767,20 765,19 763,19 761,18 760,18 758,18 756,17 754,17 752,16 750,16 748,15 746,15 744,15 742,14 740,14 738,13 736,13 734,13 732,12 730,12 728,12 726,11 724,11 722,11 720,10 718,10 716,10 714,9 712,9 710,9 708,8 706,8 704,8 703,8 701,7 699,7 697,7 695,7 693,6 691,6 689,6 687,6 685,5 683,5 681,5 679,5 677,5 675,4 673,4 671,4 669,4 667,4 665,4 663,3 661,3 659,3 657,3 655,3 653,3 651,3 649,3 647,3 645,2 643,2 641,2 639,2 637,2 635,2 633,2 631,2 629,2 627,2 625,2 623,2 621,2 619,2 617,2 615,2 613,2 611,2 609,2 607,2 605,2 603,2 601,2 599,2 597,2 595,3 593,3 591,3 589,3 587,3 585,3 583,3 581,3 579,3 577,4 575,4 573,4 571,4 569,4 567,4 565,4 563,5 561,5 559,5 557,5 555,5 553,6 551,6 549,6 547,6 545,7 543,7 541,7 539,7 537,8 535,8 533,8 531,8 529,9 527,9 525,9 523,10 521,10 519,10 517,11 515,11 513,11 511,12 509,12 507,12 505,13 503,13 501,13 500,14 498,14 496,15 494,15 492,15 490,16 488,16 486,17 484,17 482,18 480,18 478,19 476,19 474,19 472,20 470,20 468,21 466,21 464,22 463,22 461,23 459,23 457,24 455,24 453,25 451,26 449,26 447,27 445,27 443,28 441,28 439,29 438,30 436,30 434,31 432,31 430,32 428,33 426,33 424,34 422,34 420,35 419,36 417,36 415,37 413,38 411,38 409,39 407,40 405,40 403,41 402,42 400,43 398,43 396,44 394,45 392,45 390,46 389,47 387,48 385,48 383,49 381,50 379,51 377,52 376,52 374,53 372,54 370,55 368,56 366,56 365,57 363,58 361,59 359,60 357,61 356,61 354,62 352,63 350,64 348,65 347,66 345,67 343,68 341,68 339,69 338,70 336,71 334,72 332,73 331,74 329,75 327,76 325,77 323,78 322,79 320,80 318,81 317,82 315,83 313,84 311,85 310,86 308,87 306,88 304,89 303,90 301,91 299,92 298,93 296,94 294,95 292,96 291,97 289,98 287,99 286,100 284,101 282,102 281,104 279,105 277,106 276,107 274,108 272,109 271,110 269,111 267,112 266,114 264,115 262,116 261,117 259,118 258,119 256,121 254,122 253,123 251,124 250,125 248,127 246,128 245,129 243,130 242,131 240,133 238,134 237,135 235,136 234,138 232,139 231,140 229,141 228,143 226,144 224,145 223,146 221,148 220,149 218,150 217,152 215,153 214,154 212,156 211,157 209,158 208,160 206,161 205,162 203,164 202,165 200,166 199,168 197,169 196,170 195,172 193,173 192,175 190,176 189,177 187,179 186,180 185,182 183,183 182,184 180,186 179,187 177,189 176,190 175,191 173,193 172,194 171,196 169,197 168,199 166,200 165,202 164,203 162,205 161,206 160,208 158,209 157,211 156,212 154,214 153,215 152,217 151,218 149,220 148,221 147,223 145,224 144,226 143,227 142,229 140,230 139,232 138,234 136,235 135,237 134,238 133,240 132,241 130,243 129,245 128,246 127,248 125,249 124,251 123,253 122,254 121,256 120,257 118,259 117,261 116,262 115,264 114,266 113,267 111,269 110,270 109,272 108,274 107,275 106,277 105,279 104,280 103,282 101,284 100,285 99,287 98,289 97,291 96,292 95,294 94,296 93,297 92,299 91,301 90,302 89,304 88,306 87,308 86,309 85,311 84,313 83,315 82,316 81,318 80,320 79,322 78,323 77,325 76,327 75,329 74,330 73,332 72,334 71,336 70,337 69,339 69,341 68,343 67,345 66,346 65,348 64,350 63,352 62,354 62,355 61,357 60,359 59,361 58,363 57,364 57,366 56,368 55,370 54,372 53,374 52,375 52,377 51,379 50,381 49,383 49,385 48,386 47,388 46,390 46,392 45,394 44,396 43,398 43,399 42,401 41,403 41,405 40,407 39,409 39,411 38,413 37,414 37,416 36,418 35,420 35,422 34,424 33,426 33,428 32,430 31,432 31,433 30,435 30,437 29,439 28,441 28,443 27,445 27,447 26,449 26,451 25,453 25,455 24,456 24,458 23,460 22,462 22,464 21,466 21,468 20,470 20,472 20,474 19,476 19,478 18,480 18,482 17,484 17,486 16,488 16,489 16,491 15,493 15,495 14,497 14,499 14,501 13,503 13,505 12,507 12,509 12,511 11,513 11,515 11,517 10,519 10,521 10,523 9,525 9,527 9,529 8,531 8,533 8,535 8,537 7,539 7,541 7,543 7,545 6,547 6,549 6,551 6,553 5,555 5,557 5,559 5,561 5,563 4,565 4,567 4,569 4,571 4,573 4,575 4,577 3,579 3,581 3,583 3,585 3,587 3,589 3,591 3,593 3,595 2,597 2,599 2,600 2,602 2,604 2,606 2,608 2,610 2,612 2,614 2,616 2,618 2,620 2,622 2,624 2,626 2,628 2,630 2,632 2,634 2,636 2,638 2,640 2,642 2,644 3,646 3,648 3,650 3,652 3,654 3,656 3,658 3,660 3,662 4,664 4,666 4,668 4,670 4,672 4,674 5,676 5,678 5,680 5,682 5,684 6,686 6,688 6,690 6,692 6,694 7,696 7,698 7,700 7,702 8,704 8,706 8,708 9,710 9,712 9,714 10,716 10,718 10,720 10,722 11,724 11,726 11,728 12,730 12,732 13,734 13,736 13,738 14,740 14,742 14,744 15,746 15,748 16,750 16,751 17,753 17,755 17,757 18,759 18,761 19,763 19,765 20,767 20,769 21,771 21,773 22,775 22,777 23,779 23,781 24,783 24,784 25,786 25,788 26,790 26,792 27,794 28,796 28,798 29,800 29,802 30,804 31,806 31,807 32,809 32,811 33,813 34,815 34,817 35,819 36,821 36,823 37,825 38,826 38,828 39,830 40,832 40,834 41,836 42,838 42,840 43,841 44,843 44,845 45,847 46,849 47,851 47,853 48,854 49,856 50,858 51,860 51,862 52,864 53,866 54,867 54,869 55,871 56,873 57,875 58,876 59,878 59,880 60,882 61,884 62,886 63,887 64,889 65,891 65,893 66,895 67,896 68,898 69,900 70,902 71,903 72,905 73,907 74,909 75,911 76,912 76,914 77,916 78,918 79,919 80,921 81,923 82,925 83,926 84,928 85,930 86,932 87,933 88,935 89,937 90,938 91,940 92,942 93,944 95,945 96,947 97,949 98,950 99,952 100,954 101,955 102,957 103,959 104,960 105,962 106,964 108,965 109,967 110,969 111,970 112,972 113,974 114,975 115,977 117,979 118,980 119,982 120,983 121,985 123,987 124,988 125,990 126,991 127,993 129,995 130,996 131,998 132,999 133,1001 135,1003 136,1004 137,1006 138,1007 140,1009 141,1010 142,1012 143,1013 145,1015 146,1017 147,1018 149,1020 150,1021 151,1023 152,1024 154,1026 155,1027 156,1029 158,1030 159,1032 160,1033 162,1035 163,1036 164,1038 166,1039 167,1041 168,1042 170,1043 171,1045 173,1046 174,1048 175,1049 177,1051 178,1052 180,1054 181,1055 182,1056 184,1058 185,1059 187,1061 188,1062 190,1063 191,1065 192,1066 194,1068 195,1069 197,1070 198,1072 200,1073 201,1074 203,1076 204,1077 206,1078 207,1080 209,1081 210,1082 212,1084 213,1085 215,1086 216,1088 218,1089 219,1090 221,1092 222,1093 224,1094 225,1095 227,1097 228,1098 230,1099 231,1101 233,1102 235,1103 236,1104 238,1106 239,1107 241,1108 242,1109 244,1110 246,1112 247,1113 249,1114 250,1115 252,1116 254,1118 255,1119 257,1120 258,1121 260,1122 262,1124 263,1125 265,1126 267,1127 268,1128 270,1129 271,1130 273,1131 275,1133 276,1134 278,1135 280,1136 281,1137 283,1138 285,1139 287,1140 288,1141 290,1142 292,1144 293,1145 295,1146 297,1147 298,1148 300,1149 302,1150 304,1151 305,1152 307,1153 309,1154 310,1155 312,1156 314,1157 316,1158 317,1159 319,1160 321,1161 323,1162 324,1163 326,1164 328,1165 330,1166 331,1166 333,1167 335,1168 337,1169 339,1170 340,1171 342,1172 344,1173 346,1174 347,1175 349,1176 351,1176 353,1177 355,1178 356,1179 358,1180 360,1181 362,1182 364,1182 366,1183 367,1184 369,1185 371,1186 373,1186 375,1187 377,1188 378,1189 380,1190 382,1190 384,1191 386,1192 388,1193 389,1193 391,1194 393,1195 395,1196 397,1196 399,1197 401,1198 403,1198 404,1199 406,1200 408,1201 410,1201 412,1202 414,1203 416,1203 418,1204 419,1205 421,1205 423,1206 425,1206 427,1207 429,1208 431,1208 433,1209 435,1210 437,1210 438,1211 440,1211 442,1212 444,1212 446,1213 448,1214 450,1214 452,1215 454,1215 456,1216 458,1216 460,1217 462,1217 463,1218 465,1218 467,1219 469,1219 471,1220 473,1220 475,1221 477,1221 479,1222 481,1222 483,1223 485,1223 487,1223 489,1224 491,1224 493,1225 495,1225 497,1226 499,1226 501,1226 502,1227 504,1227 506,1227 508,1228 510,1228 512,1229 514,1229 516,1229 518,1230 520,1230 522,1230 524,1231 526,1231 528,1231 530,1231 532,1232 534,1232 536,1232 538,1233 540,1233 542,1233 544,1233 546,1234 548,1234 550,1234 552,1234 554,1234 556,1235 558,1235 560,1235 562,1235 564,1235 566,1236 568,1236 570,1236 572,1236 574,1236 576,1236 578,1237 580,1237 582,1237 584,1237 586,1237 588,1237 590,1237 592,1237 594,1237 596,1238 598,1238 600,1238 602,1238 604,1238 606,1238 608,1238 610,1238 612,1238 614,1238 616,1238 618,1238 620,1238 622,1238 624,1238 626,1238 628,1238 630,1238 632,1238 634,1238 636,1238 638,1238 640,1238 642,1238 644,1238 646,1237 648,1237 650,1237 652,1237 654,1237 656,1237 658,1237 660,1237 662,1237 664,1236 666,1236 668,1236 670,1236 672,1236 674,1236 676,1235 678,1235 680,1235 682,1235 684,1235 686,1235 688,1234 690,1234 692,1234 694,1234 696,1233 698,1233 700,1233 702,1233 703,1232 705,1232 707,1232 709,1231 711,1231 713,1231 715,1231 717,1230 719,1230 721,1230 723,1229 725,1229 727,1229 729,1228 731,1228 733,1228 735,1227 737,1227 739,1226 741,1226 743,1226 745,1225 747,1225 749,1224 751,1224 753,1224 755,1223 757,1223 759,1222 761,1222 762,1221 764,1221 766,1220 768,1220 770,1219 772,1219 774,1218 776,1218 778,1217 780,1217 782,1216 784,1216 786,1215 788,1215 790,1214 791,1214 793,1213 795,1213 797,1212 799,1211 801,1211 803,1210 805,1210 807,1209 809,1208 811,1208 812,1207 814,1207 816,1206 818,1205 820,1205 822,1204 824,1203 826,1203 828,1202 830,1201 831,1201 833,1200 835,1199 837,1199 839,1198 841,1197 843,1197 844,1196 846,1195 848,1194 850,1194 852,1193 854,1192 856,1191 857,1191 859,1190 861,1189 863,1188 865,1187 867,1187 869,1186 870,1185 872,1184 874,1183 876,1183 878,1182 879,1181 881,1180 883,1179 885,1178 887,1177 888,1177 890,1176 892,1175 894,1174 896,1173 897,1172 899,1171 901,1170 903,1169 905,1169 906,1168 908,1167 910,1166 912,1165 913,1164 915,1163 917,1162 919,1161 920,1160 922,1159 924,1158 926,1157 927,1156 929,1155 931,1154 933,1153 934,1152 936,1151 938,1150 939,1149 941,1148 943,1147 945,1146 946,1145 948,1144 950,1143 951,1142 953,1141 955,1139 956,1138 958,1137 960,1136 961,1135 963,1134 965,1133 966,1132 968,1131 970,1130 971,1128 973,1127 975,1126 976,1125 978,1124 980,1123 981,1121 983,1120 984,1119 986,1118 988,1117 989,1116 991,1114 992,1113 994,1112 996,1111 997,1110 999,1108 1000,1107 1002,1106 1004,1105 1005,1103 1007,1102 1008,1101 1010,1100 1011,1098 1013,1097 1014,1096 1016,1095 1017,1093 1019,1092 1021,1091 1022,1089 1024,1088 1025,1087 1027,1085 1028,1084 1030,1083 1031,1081 1033,1080 1034,1079 1036,1077 1037,1076 1038,1075 1040,1073 1041,1072 1043,1071 1044,1069 1046,1068 1047,1067 1049,1065 1050,1064 1052,1062 1053,1061 1054,1060 1056,1058 1057,1057 1059,1055 1060,1054 1061,1052 1063,1051 1064,1050 1066,1048 1067,1047 1068,1045 1070,1044 1071,1042 1073,1041 1074,1039 1075,1038 1077,1036 1078,1035 1079,1034 1081,1032 1082,1031 1083,1029 1085,1028 1086,1026 1087,1025 1089,1023 1090,1021 1091,1020 1092,1018 1094,1017 1095,1015 1096,1014 1098,1012 1099,1011 1100,1009 1101,1008 1103,1006 1104,1005 1105,1003 1106,1001 1108,1000 1109,998 1110,997 1111,995 1112,993 1114,992 1115,990 1116,989 1117,987 1118,985 1120,984 1121,982 1122,981 1123,979 1124,977 1125,976 1127,974 1128,972 1129,971 1130,969 1131,967 1132,966 1133,964 1134,962 1136,961 1137,959 1138,957 1139,956 1140,954 1141,952 1142,951 1143,949 1144,947 1145,946 1146,944 1147,942 1148,941 1149,939 1150,937 1151,935 1152,934 1153,932 1154,930 1155,929 1156,927 1157,925 1158,923 1159,922 1160,920 1161,918 1162,916 1163,915 1164,913 1165,911 1166,909 1167,907 1168,906 1169,904 1170,902 1171,900 1172,899 1173,897 1173,895 1174,893 1175,891 1176,890 1177,888 1178,886 1179,884 1180,882 1180,881 1181,879 1182,877 1183,875 1184,873 1185,871 1185,870 1186,868 1187,866 1188,864 1189,862 1189,860 1190,859 1191,857 1192,855 1192,853 1193,851 1194,849 1195,848 1195,846 1196,844 1197,842 1197,840 1198,838 1199,836 1200,834 1200,833 1201,831 1202,829 1202,827 1203,825 1204,823 1204,821 1205,819 1206,817 1206,816 1207,814 1207,812 1208,810 1209,808 1209,806 1210,804 1211,802 1211,800 1212,798 1212,797 1213,795 1213,793 1214,791 1214,789 1215,787 1216,785 1216,783 1217,781 1217,779 1218,777 1218,775 1219,773 1219,771 1220,770 1220,768 1221,766 1221,764 1222,762 1222,760 1222,758 1223,756 1223,754 1224,752 1224,750 1225,748 1225,746 1225,744 1226,742 1226,740 1227,738 1227,736 1227,734 1228,732 1228,730 1228,728 1229,726 1229,725 1229,723 1230,721 1230,719 1230,717 1231,715 1231,713 1231,711 1232,709 1232,707 1232,705 1232,703 1233,701 1233,699 1233,697 1233,695 1234,693 1234,691 1234,689 1234,687 1235,685 1235,683 1235,681 1235,679 1235,677 1236,675 1236,673 1236,671 1236,669 1236,667 1236,665 1237,663 1237,661 1237,659 1237,657 1237,655 1237,653 1237,651 1237,649 1237,647 1237,645 1238,643 1238,641 1238,639 1238,637 1238,635 1238,633 1238,631 1238,629 1238,627 1238,625 1238,623 1238,621 1238,620 " />
<polyline fill="none" vector-effect="non-scaling-stroke" points="627,191 627,189 626,188 625,186 624,185 622,184 620,184 618,184 616,185 614,186 613,188 613,190 613,192 613,194 614,196 615,197 617,198 619,199 621,199 623,198 625,197 626,196 627,194 627,192 627,191 " />
<polyline fill="none" vector-effect="non-scaling-stroke" points="627,1022 627,1020 626,1018 625,1017 624,1015 622,1015 620,1015 618,1015 616,1016 614,1017 613,1019 613,1021 613,1023 613,1025 614,1026 615,1028 617,1029 619,1029 621,1029 623,1029 625,1028 626,1026 627,1025 627,1023 627,1022 " />
<polyline fill="none" vector-effect="non-scaling-stroke" points="627,620 627,618 626,616 625,615 624,613 622,613 620,613 618,613 616,614 614,615 613,617 613,619 613,621 613,623 614,624 615,626 617,627 619,627 621,627 623,627 625,626 626,624 627,623 627,621 627,620 " />
<polyline fill="none" vector-effect="non-scaling-stroke" points="112,817 111,815 111,814 109,812 108,811 106,810 104,810 102,810 100,811 99,812 98,814 97,816 97,818 97,820 98,822 100,823 101,824 103,825 105,825 107,824 109,823 110,822 111,820 112,818 112,817 " />
<polyline fill="none" vector-effect="non-scaling-stroke" points="243,191 243,189 242,188 241,186 239,185 237,184 235,184 233,184 231,185 230,186 229,188 228,190 228,192 228,194 229,196 231,197 232,198 234,199 236,199 238,198 240,197 241,196 242,194 243,192 243,191 " />
<polyline fill="none" vector-effect="non-scaling-stroke" points="243,620 243,618 242,616 241,615 239,613 237,613 235,613 233,613 231,614 230,615 229,617 228,619 228,621 228,623 229,624 231,626 232,627 234,627 236,627 238,627 240,626 241,624 242,623 243,621 243,620 " />
<polyline fill="none" vector-effect="non-scaling-stroke" points="190,894 190,892 189,890 188,889 186,888 184,887 182,887 180,887 179,888 177,889 176,891 175,893 175,895 176,897 176,898 178,900 180,901 181,901 183,902 185,901 187,900 189,899 190,897 190,895 190,894 " />
<polyline fill="none" vector-effect="non-scaling-stroke" points="112,345 111,343 111,341 109,339 108,338 106,337 104,337 102,337 100,338 99,340 98,341 97,343 97,345 97,347 98,349 100,350 101,351 103,352 105,352 107,351 109,350 110,349 111,347 112,345 " />
<polyline fill="none" vector-effect="non-scaling-stroke" points="1012,191 1012,189 1011,188 1010,186 1008,185 1006,184 1004,184 1002,184 1001,185 999,186 998,188 997,190 997,192 998,194 999,196 1000,197 1002,198 1003,199 1005,199 1007,198 1009,197 1011,196 1012,194 1012,192 1012,191 " />
<polyline fill="none" vector-effect="non-scaling-stroke" points="1143,817 1143,815 1142,814 1141,812 1139,811 1137,810 1135,810 1133,810 1132,811 1130,812 1129,814 1128,816 1128,818 1129,820 1130,822 1131,823 1133,824 1135,825 1137,825 1139,824 1140,823 1142,822 1143,820 1143,818 1143,817 " />
<polyline fill="none" vector-effect="non-scaling-stroke" points="1143,345 1143,343 1142,341 1141,339 1139,338 1137,337 1135,337 1133,337 1132,338 1130,340 1129,341 1128,343 1128,345 1129,347 1130,349 1131,350 1133,351 1135,352 1137,352 1139,351 1140,350 1142,349 1143,347 1143,345 " />
<polyline fill="none" vector-effect="non-scaling-stroke" points="112,394 111,392 111,391 109,389 108,388 106,387 104,387 102,387 100,388 99,389 98,391 97,393 97,395 97,397 98,399 100,400 101,401 103,402 105,402 107,401 109,400 110,399 111,397 112,395 112,394 " />
<polyline fill="none" vector-effect="non-scaling-stroke" points="112,867 111,865 111,863 109,862 108,861 106,860 104,860 102,860 100,861 99,862 98,864 97,866 97,868 97,870 98,872 100,873 101,874 103,875 105,875 107,874 109,873 110,872 111,870 112,868 112,867 " />
<polyline fill="none" vector-effect="non-scaling-stroke" points="1143,867 1143,865 1142,863 1141,862 1139,861 1137,860 1135,860 1133,860 1132,861 1130,862 1129,864 1128,866 1128,868 1129,870 1130,872 1131,873 1133,874 1135,875 1137,875 1139,874 1140,873 1142,872 1143,870 1143,868 1143,867 " />
<polyline fill="none" vector-effect="non-scaling-stroke" points="1143,394 1143,392 1142,391 1141,389 1139,388 1137,387 1135,387 1133,387 1132,388 1130,389 1129,391 1128,393 1128,395 1129,397 1130,399 1131,400 1133,401 1135,402 1137,402 1139,401 1140,400 1142,399 1143,397 1143,395 1143,394 " />
<polyline fill="none" vector-effect="non-scaling-stroke" points="243,1022 243,1020 242,1018 241,1017 239,1015 237,1015 235,1015 233,1015 231,1016 230,1017 229,1019 228,1021 228,1023 228,1025 229,1026 231,1028 232,1029 234,1029 236,1029 238,1029 240,1028 241,1026 242,1025 243,1023 243,1022 " />
<polyline fill="none" vector-effect="non-scaling-stroke" points="1012,1022 1012,1020 1011,1018 1010,1017 1008,1015 1006,1015 1004,1015 1002,1015 1001,1016 999,1017 998,1019 997,1021 997,1023 998,1025 999,1026 1000,1028 1002,1029 1003,1029 1005,1029 1007,1029 1009,1028 1011,1026 1012,1025 1012,1023 1012,1022 " />
<polyline fill="none" vector-effect="non-scaling-stroke" points="1012,620 1012,618 1011,616 1010,615 1008,613 1006,613 1004,613 1002,613 1001,614 999,615 998,617 997,619 997,621 998,623 999,624 1000,626 1002,627 1003,627 1005,627 1007,627 1009,626 1011,624 1012,623 1012,621 1012,620 " />
</g>

<g fill="#000000" fill-opacity="1" stroke="none" transform="matrix(1,0,0,1,0,0)"
font-family="Sans" font-size="10" font-weight="400" font-style="normal" 
>
<path vector-effect="non-scaling-stroke" fill-rule="evenodd" d="M620.5,620 C620.5,620.276 620.276,620.5 620,620.5 C619.724,620.5 619.5,620.276 619.5,620 C619.5,619.724 619.724,619.5 620,619.5 C620.276,619.5 620.5,619.724 620.5,620 "/>
</g>

<g fill="none" stroke="#000000" stroke-opacity="1" stroke-width="1" stroke-linecap="round" stroke-linejoin="round" transform="matrix(1,0,0,1,0,0)"
font-family="Sans" font-size="10" font-weight="400" font-style="normal" 
>
<polyline fill="none" vector-effect="non-scaling-stroke" points="1178,887 1176,886 1174,885 1172,884 1170,884 1168,883 1166,883 1164,882 1162,882 1160,882 1158,882 1156,882 1154,882 1152,883 1150,883 1148,884 1146,884 1145,885 1143,886 1141,887 1139,887 1137,889 1136,890 1134,891 1133,892 1131,894 1130,895 1129,896 1127,898 1126,900 1125,901 1124,903 1123,905 1122,907 1122,909 1121,910 1120,912 1120,914 1120,916 1119,918 1119,920 1119,922 1119,924 1120,926 1120,928 1120,930 1121,932 1121,934 1122,936 1123,938 1123,940 1124,941 1125,943 1126,945 1128,946 1129,948 1130,949 1132,951 1133,952 1135,953 1136,955 1138,956 1139,956 " />
<polyline fill="none" vector-effect="non-scaling-stroke" points="1065,894 1065,892 1064,890 1063,889 1061,888 1059,887 1057,887 1055,887 1053,888 1052,889 1051,891 1050,893 1050,895 1050,897 1051,898 1053,900 1054,901 1056,901 1058,902 1060,901 1062,900 1063,899 1064,897 1065,895 1065,894 " />
<polyline fill="none" vector-effect="non-scaling-stroke" points="1143,345 1143,343 1142,341 1141,339 1139,338 1137,337 1135,337 1134,337 1132,338 1130,340 1129,341 1128,343 1128,345 1129,347 1130,349 1131,350 1133,351 1135,352 1137,352 1139,351 1140,350 1142,349 1143,347 1143,345 " />
<polyline fill="none" vector-effect="non-scaling-stroke" points="1143,817 1143,815 1142,814 1141,812 1139,811 1137,810 1135,810 1134,810 1132,811 1130,812 1129,814 1128,816 1128,818 1129,820 1130,822 1131,823 1133,824 1135,825 1137,825 1139,824 1140,823 1142,822 1143,820 1143,818 1143,817 " />
<polyline fill="none" vector-effect="non-scaling-stroke" points="1012,191 1012,189 1011,188 1010,186 1008,185 1006,184 1004,184 1002,184 1001,185 999,186 998,188 997,190 997,192 998,194 999,196 1000,197 1002,198 1004,199 1006,199 1007,198 1009,197 1011,196 1012,194 1012,192 1012,191 " />
<polyline fill="none" vector-effect="non-scaling-stroke" points="1012,620 1012,618 1011,616 1010,615 1008,613 1006,613 1004,613 1002,613 1001,614 999,615 998,617 997,619 997,621 998,623 999,624 1000,626 1002,627 1004,627 1006,627 1007,627 1009,626 1011,624 1012,623 1012,621 1012,620 " />
<polyline fill="none" vector-effect="non-scaling-stroke" points="1012,1022 1012,1020 1011,1018 1010,1017 1008,1015 1006,1015 1004,1015 1002,1015 1001,1016 999,1017 998,1019 997,1021 997,1023 998,1025 999,1026 1000,1028 1002,1029 1004,1029 1006,1029 1007,1029 1009,1028 1011,1026 1012,1025 1012,1023 1012,1022 " />
<polyline fill="none" vector-effect="non-scaling-stroke" points="243,1022 243,1020 242,1018 241,1017 239,1015 237,1015 235,1015 233,1015 231,1016 230,1017 229,1019 228,1021 228,1023 228,1025 229,1026 231,1028 232,1029 234,1029 236,1029 238,1029 240,1028 241,1026 242,1025 243,1023 243,1022 " />
<polyline fill="none" vector-effect="non-scaling-stroke" points="243,620 243,618 242,616 241,615 239,613 237,613 235,613 233,613 231,614 230,615 229,617 228,619 228,621 228,623 229,624 231,626 232,627 234,627 236,627 238,627 240,626 241,624 242,623 243,621 243,620 " />
<polyline fill="none" vector-effect="non-scaling-stroke" points="243,191 243,189 242,188 241,186 239,185 237,184 235,184 233,184 231,185 230,186 229,188 228,190 228,192 228,194 229,196 231,197 232,198 234,199 236,199 238,198 240,197 241,196 242,194 243,192 243,191 " />
<polyline fill="none" vector-effect="non-scaling-stroke" points="112,817 112,815 111,814 110,812 108,811 106,810 104,810 102,810 100,811 99,812 98,814 97,816 97,818 97,820 98,822 100,823 101,824 103,825 105,825 107,824 109,823 110,822 111,820 112,818 112,817 " />
<polyline fill="none" vector-effect="non-scaling-stroke" points="112,345 112,343 111,341 110,339 108,338 106,337 104,337 102,337 100,338 99,340 98,341 97,343 97,345 97,347 98,349 100,350 101,351 103,352 105,352 107,351 109,350 110,349 111,347 112,345 " />
<polyline fill="none" vector-effect="non-scaling-stroke" points="628,1022 627,1020 626,1018 625,1017 624,1015 622,1015 620,1015 618,1015 616,1016 614,1017 613,1019 613,1021 613,1023 613,1025 614,1026 615,1028 617,1029 619,1029 621,1029 623,1029 625,1028 626,1026 627,1025 627,1023 628,1022 " />
<polyline fill="none" vector-effect="non-scaling-stroke" points="628,191 627,189 626,188 625,186 624,185 622,184 620,184 618,184 616,185 614,186 613,188 613,190 613,192 613,194 614,196 615,197 617,198 619,199 621,199 623,198 625,197 626,196 627,194 627,192 628,191 " />
<polyline fill="none" vector-effect="non-scaling-stroke" points="403,246 403,244 402,242 401,241 399,240 397,239 395,239 394,239 392,240 390,241 389,243 388,245 388,247 389,249 390,251 391,252 393,253 395,254 397,254 399,253 400,252 402,251 403,249 403,247 403,246 " />
<polyline fill="none" vector-effect="non-scaling-stroke" points="403,321 403,319 402,317 401,316 399,314 397,314 395,314 394,314 392,315 390,316 389,318 388,320 388,322 389,324 390,325 391,327 393,328 395,328 397,328 399,328 400,327 402,325 403,324 403,322 403,321 " />
<polyline fill="none" vector-effect="non-scaling-stroke" points="403,396 403,394 402,392 401,390 399,389 397,388 395,388 394,389 392,389 390,391 389,392 388,394 388,396 389,398 390,400 391,401 393,403 395,403 397,403 399,403 400,402 402,400 403,398 403,397 403,396 " />
<polyline fill="none" vector-effect="non-scaling-stroke" points="403,470 403,469 402,467 401,465 399,464 397,463 395,463 394,463 392,464 390,466 389,467 388,469 388,471 389,473 390,475 391,476 393,477 395,478 397,478 399,477 400,476 402,475 403,473 403,471 403,470 " />
<polyline fill="none" vector-effect="non-scaling-stroke" points="403,545 403,543 402,541 401,540 399,539 397,538 395,538 394,538 392,539 390,540 389,542 388,544 388,546 389,548 390,550 391,551 393,552 395,553 397,553 399,552 400,551 402,550 403,548 403,546 403,545 " />
<polyline fill="none" vector-effect="non-scaling-stroke" points="403,620 403,618 402,616 401,615 399,613 397,613 395,613 394,613 392,614 390,615 389,617 388,619 388,621 389,623 390,624 391,626 393,627 395,627 397,627 399,627 400,626 402,624 403,623 403,621 403,620 " />
<polyline fill="none" vector-effect="non-scaling-stroke" points="403,695 403,693 402,691 401,689 399,688 397,688 395,687 394,688 392,689 390,690 389,691 388,693 388,695 389,697 390,699 391,701 393,702 395,702 397,702 399,702 400,701 402,699 403,698 403,696 403,695 " />
<polyline fill="none" vector-effect="non-scaling-stroke" points="403,770 403,768 402,766 401,764 399,763 397,762 395,762 394,762 392,763 390,765 389,766 388,768 388,770 389,772 390,774 391,775 393,776 395,777 397,777 399,776 400,775 402,774 403,772 403,770 " />
<polyline fill="none" vector-effect="non-scaling-stroke" points="403,844 403,842 402,840 401,839 399,838 397,837 395,837 394,837 392,838 390,839 389,841 388,843 388,845 389,847 390,849 391,850 393,851 395,852 397,852 399,851 400,850 402,849 403,847 403,845 403,844 " />
<polyline fill="none" vector-effect="non-scaling-stroke" points="403,919 403,917 402,915 401,914 399,912 397,912 395,912 394,912 392,913 390,914 389,916 388,918 388,920 389,922 390,923 391,925 393,926 395,926 397,926 399,926 400,925 402,924 403,922 403,920 403,919 " />
<polyline fill="none" vector-effect="non-scaling-stroke" points="403,994 403,992 402,990 401,988 399,987 397,987 395,986 394,987 392,988 390,989 389,991 388,992 388,994 389,996 390,998 391,1000 393,1001 395,1001 397,1001 399,1001 400,1000 402,998 403,997 403,995 403,994 " />
<polyline fill="none" vector-effect="non-scaling-stroke" points="478,246 478,244 477,242 476,241 474,240 472,239 470,239 468,239 466,240 465,241 464,243 463,245 463,247 464,249 464,251 466,252 468,253 469,254 471,254 473,253 475,252 476,251 477,249 478,247 478,246 " />
<polyline fill="none" vector-effect="non-scaling-stroke" points="478,321 478,319 477,317 476,316 474,314 472,314 470,314 468,314 466,315 465,316 464,318 463,320 463,322 464,324 464,325 466,327 468,328 469,328 471,328 473,328 475,327 476,325 477,324 478,322 478,321 " />
<polyline fill="none" vector-effect="non-scaling-stroke" points="478,396 478,394 477,392 476,390 474,389 472,388 470,388 468,389 466,389 465,391 464,392 463,394 463,396 464,398 464,400 466,401 468,403 469,403 471,403 473,403 475,402 476,400 477,398 478,397 478,396 " />
<polyline fill="none" vector-effect="non-scaling-stroke" points="478,470 478,469 477,467 476,465 474,464 472,463 470,463 468,463 466,464 465,466 464,467 463,469 463,471 464,473 464,475 466,476 468,477 469,478 471,478 473,477 475,476 476,475 477,473 478,471 478,470 " />
<polyline fill="none" vector-effect="non-scaling-stroke" points="478,545 478,543 477,541 476,540 474,539 472,538 470,538 468,538 466,539 465,540 464,542 463,544 463,546 464,548 464,550 466,551 468,552 469,553 471,553 473,552 475,551 476,550 477,548 478,546 478,545 " />
<polyline fill="none" vector-effect="non-scaling-stroke" points="478,620 478,618 477,616 476,615 474,613 472,613 470,613 468,613 466,614 465,615 464,617 463,619 463,621 464,623 464,624 466,626 468,627 469,627 471,627 473,627 475,626 476,624 477,623 478,621 478,620 " />
<polyline fill="none" vector-effect="non-scaling-stroke" points="478,695 478,693 477,691 476,689 474,688 472,688 470,687 468,688 466,689 465,690 464,691 463,693 463,695 464,697 464,699 466,701 468,702 469,702 471,702 473,702 475,701 476,699 477,698 478,696 478,695 " />
<polyline fill="none" vector-effect="non-scaling-stroke" points="478,770 478,768 477,766 476,764 474,763 472,762 470,762 468,762 466,763 465,765 464,766 463,768 463,770 464,772 464,774 466,775 468,776 469,777 471,777 473,776 475,775 476,774 477,772 478,770 " />
<polyline fill="none" vector-effect="non-scaling-stroke" points="478,844 478,842 477,840 476,839 474,838 472,837 470,837 468,837 466,838 465,839 464,841 463,843 463,845 464,847 464,849 466,850 468,851 469,852 471,852 473,851 475,850 476,849 477,847 478,845 478,844 " />
<polyline fill="none" vector-effect="non-scaling-stroke" points="478,919 478,917 477,915 476,914 474,912 472,912 470,912 468,912 466,913 465,914 464,916 463,918 463,920 464,922 464,923 466,925 468,926 469,926 471,926 473,926 475,925 476,924 477,922 478,920 478,919 " />
<polyline fill="none" vector-effect="non-scaling-stroke" points="478,994 478,992 477,990 476,988 474,987 472,987 470,986 468,987 466,988 465,989 464,991 463,992 463,994 464,996 464,998 466,1000 468,1001 469,1001 471,1001 473,1001 475,1000 476,998 477,997 478,995 478,994 " />
<polyline fill="none" vector-effect="non-scaling-stroke" points="553,246 552,244 552,242 550,241 549,240 547,239 545,239 543,239 541,240 540,241 539,243 538,245 538,247 538,249 539,251 541,252 542,253 544,254 546,254 548,253 550,252 551,251 552,249 553,247 553,246 " />
<polyline fill="none" vector-effect="non-scaling-stroke" points="553,321 552,319 552,317 550,316 549,314 547,314 545,314 543,314 541,315 540,316 539,318 538,320 538,322 538,324 539,325 541,327 542,328 544,328 546,328 548,328 550,327 551,325 552,324 553,322 553,321 " />
<polyline fill="none" vector-effect="non-scaling-stroke" points="553,396 552,394 552,392 550,390 549,389 547,388 545,388 543,389 541,389 540,391 539,392 538,394 538,396 538,398 539,400 541,401 542,403 544,403 546,403 548,403 550,402 551,400 552,398 553,397 553,396 " />
<polyline fill="none" vector-effect="non-scaling-stroke" points="553,470 552,469 552,467 550,465 549,464 547,463 545,463 543,463 541,464 540,466 539,467 538,469 538,471 538,473 539,475 541,476 542,477 544,478 546,478 548,477 550,476 551,475 552,473 553,471 553,470 " />
<polyline fill="none" vector-effect="non-scaling-stroke" points="553,545 552,543 552,541 550,540 549,539 547,538 545,538 543,538 541,539 540,540 539,542 538,544 538,546 538,548 539,550 541,551 542,552 544,553 546,553 548,552 550,551 551,550 552,548 553,546 553,545 " />
<polyline fill="none" vector-effect="non-scaling-stroke" points="553,620 552,618 552,616 550,615 549,613 547,613 545,613 543,613 541,614 540,615 539,617 538,619 538,621 538,623 539,624 541,626 542,627 544,627 546,627 548,627 550,626 551,624 552,623 553,621 553,620 " />
<polyline fill="none" vector-effect="non-scaling-stroke" points="553,695 552,693 552,691 550,689 549,688 547,688 545,687 543,688 541,689 540,690 539,691 538,693 538,695 538,697 539,699 541,701 542,702 544,702 546,702 548,702 550,701 551,699 552,698 553,696 553,695 " />
<polyline fill="none" vector-effect="non-scaling-stroke" points="553,770 552,768 552,766 550,764 549,763 547,762 545,762 543,762 541,763 540,765 539,766 538,768 538,770 538,772 539,774 541,775 542,776 544,777 546,777 548,776 550,775 551,774 552,772 553,770 " />
<polyline fill="none" vector-effect="non-scaling-stroke" points="553,844 552,842 552,840 550,839 549,838 547,837 545,837 543,837 541,838 540,839 539,841 538,843 538,845 538,847 539,849 541,850 542,851 544,852 546,852 548,851 550,850 551,849 552,847 553,845 553,844 " />
<polyline fill="none" vector-effect="non-scaling-stroke" points="553,919 552,917 552,915 550,914 549,912 547,912 545,912 543,912 541,913 540,914 539,916 538,918 538,920 538,922 539,923 541,925 542,926 544,926 546,926 548,926 550,925 551,924 552,922 553,920 553,919 " />
<polyline fill="none" vector-effect="non-scaling-stroke" points="553,994 552,992 552,990 550,988 549,987 547,987 545,986 543,987 541,988 540,989 539,991 538,992 538,994 538,996 539,998 541,1000 542,1001 544,1001 546,1001 548,1001 550,1000 551,998 552,997 553,995 553,994 " />
<polyline fill="none" vector-effect="non-scaling-stroke" points="628,246 627,244 626,242 625,241 624,240 622,239 620,239 618,239 616,240 614,241 613,243 613,245 613,247 613,249 614,251 615,252 617,253 619,254 621,254 623,253 625,252 626,251 627,249 627,247 628,246 " />
<polyline fill="none" vector-effect="non-scaling-stroke" points="628,321 627,319 626,317 625,316 624,314 622,314 620,314 618,314 616,315 614,316 613,318 613,320 613,322 613,324 614,325 615,327 617,328 619,328 621,328 623,328 625,327 626,325 627,324 627,322 628,321 " />
<polyline fill="none" vector-effect="non-scaling-stroke" points="628,396 627,394 626,392 625,390 624,389 622,388 620,388 618,389 616,389 614,391 613,392 613,394 613,396 613,398 614,400 615,401 617,403 619,403 621,403 623,403 625,402 626,400 627,398 627,397 628,396 " />
<polyline fill="none" vector-effect="non-scaling-stroke" points="628,470 627,469 626,467 625,465 624,464 622,463 620,463 618,463 616,464 614,466 613,467 613,469 613,471 613,473 614,475 615,476 617,477 619,478 621,478 623,477 625,476 626,475 627,473 627,471 628,470 " />
<polyline fill="none" vector-effect="non-scaling-stroke" points="628,545 627,543 626,541 625,540 624,539 622,538 620,538 618,538 616,539 614,540 613,542 613,544 613,546 613,548 614,550 615,551 617,552 619,553 621,553 623,552 625,551 626,550 627,548 627,546 628,545 " />
<polyline fill="none" vector-effect="non-scaling-stroke" points="628,620 627,618 626,616 625,615 624,613 622,613 620,613 618,613 616,614 614,615 613,617 613,619 613,621 613,623 614,624 615,626 617,627 619,627 621,627 623,627 625,626 626,624 627,623 627,621 628,620 " />
<polyline fill="none" vector-effect="non-scaling-stroke" points="628,695 627,693 626,691 625,689 624,688 622,688 620,687 618,688 616,689 614,690 613,691 613,693 613,695 613,697 614,699 615,701 617,702 619,702 621,702 623,702 625,701 626,699 627,698 627,696 628,695 " />
<polyline fill="none" vector-effect="non-scaling-stroke" points="628,770 627,768 626,766 625,764 624,763 622,762 620,762 618,762 616,763 614,765 613,766 613,768 613,770 613,772 614,774 615,775 617,776 619,777 621,777 623,776 625,775 626,774 627,772 627,770 628,770 " />
<polyline fill="none" vector-effect="non-scaling-stroke" points="628,844 627,842 626,840 625,839 624,838 622,837 620,837 618,837 616,838 614,839 613,841 613,843 613,845 613,847 614,849 615,850 617,851 619,852 621,852 623,851 625,850 626,849 627,847 627,845 628,844 " />
<polyline fill="none" vector-effect="non-scaling-stroke" points="628,919 627,917 626,915 625,914 624,912 622,912 620,912 618,912 616,913 614,914 613,916 613,918 613,920 613,922 614,923 615,925 617,926 619,926 621,926 623,926 625,925 626,924 627,922 627,920 628,919 " />
<polyline fill="none" vector-effect="non-scaling-stroke" points="628,994 627,992 626,990 625,988 624,987 622,987 620,986 618,987 616,988 614,989 613,991 613,992 613,994 613,996 614,998 615,1000 617,1001 619,1001 621,1001 623,1001 625,1000 626,998 627,997 627,995 628,994 " />
<polyline fill="none" vector-effect="non-scaling-stroke" points="702,246 702,244 701,242 700,241 698,240 697,239 695,239 693,239 691,240 689,241 688,243 688,245 687,247 688,249 689,251 690,252 692,253 694,254 696,254 698,253 699,252 701,251 702,249 702,247 702,246 " />
<polyline fill="none" vector-effect="non-scaling-stroke" points="702,321 702,319 701,317 700,316 698,314 697,314 695,314 693,314 691,315 689,316 688,318 688,320 687,322 688,324 689,325 690,327 692,328 694,328 696,328 698,328 699,327 701,325 702,324 702,322 702,321 " />
<polyline fill="none" vector-effect="non-scaling-stroke" points="702,545 702,543 701,541 700,540 698,539 697,538 695,538 693,538 691,539 689,540 688,542 688,544 687,546 688,548 689,550 690,551 692,552 694,553 696,553 698,552 699,551 701,550 702,548 702,546 702,545 " />
<polyline fill="none" vector-effect="non-scaling-stroke" points="702,620 702,618 701,616 700,615 698,613 697,613 695,613 693,613 691,614 689,615 688,617 688,619 687,621 688,623 689,624 690,626 692,627 694,627 696,627 698,627 699,626 701,624 702,623 702,621 702,620 " />
<polyline fill="none" vector-effect="non-scaling-stroke" points="702,695 702,693 701,691 700,689 698,688 697,688 695,687 693,688 691,689 689,690 688,691 688,693 687,695 688,697 689,699 690,701 692,702 694,702 696,702 698,702 699,701 701,699 702,698 702,696 702,695 " />
<polyline fill="none" vector-effect="non-scaling-stroke" points="702,770 702,768 701,766 700,764 698,763 697,762 695,762 693,762 691,763 689,765 688,766 688,768 687,770 688,772 689,774 690,775 692,776 694,777 696,777 698,776 699,775 701,774 702,772 702,770 " />
<polyline fill="none" vector-effect="non-scaling-stroke" points="702,844 702,842 701,840 700,839 698,838 697,837 695,837 693,837 691,838 689,839 688,841 688,843 687,845 688,847 689,849 690,850 692,851 694,852 696,852 698,851 699,850 701,849 702,847 702,845 702,844 " />
<polyline fill="none" vector-effect="non-scaling-stroke" points="702,919 702,917 701,915 700,914 698,912 697,912 695,912 693,912 691,913 689,914 688,916 688,918 687,920 688,922 689,923 690,925 692,926 694,926 696,926 698,926 699,925 701,924 702,922 702,920 702,919 " />
<polyline fill="none" vector-effect="non-scaling-stroke" points="702,994 702,992 701,990 700,988 698,987 697,987 695,986 693,987 691,988 689,989 688,991 688,992 687,994 688,996 689,998 690,1000 692,1001 694,1001 696,1001 698,1001 699,1000 701,998 702,997 702,995 702,994 " />
<polyline fill="none" vector-effect="non-scaling-stroke" points="777,246 777,244 776,242 775,241 773,240 771,239 769,239 767,239 766,240 764,241 763,243 762,245 762,247 763,249 763,251 765,252 767,253 768,254 770,254 772,253 774,252 776,251 777,249 777,247 777,246 " />
<polyline fill="none" vector-effect="non-scaling-stroke" points="777,321 777,319 776,317 775,316 773,314 771,314 769,314 767,314 766,315 764,316 763,318 762,320 762,322 763,324 763,325 765,327 767,328 768,328 770,328 772,328 774,327 776,325 777,324 777,322 777,321 " />
<polyline fill="none" vector-effect="non-scaling-stroke" points="777,396 777,394 776,392 775,390 773,389 771,388 769,388 767,389 766,389 764,391 763,392 762,394 762,396 763,398 763,400 765,401 767,403 768,403 770,403 772,403 774,402 776,400 777,398 777,397 777,396 " />
<polyline fill="none" vector-effect="non-scaling-stroke" points="777,470 777,469 776,467 775,465 773,464 771,463 769,463 767,463 766,464 764,466 763,467 762,469 762,471 763,473 763,475 765,476 767,477 768,478 770,478 772,477 774,476 776,475 777,473 777,471 777,470 " />
<polyline fill="none" vector-effect="non-scaling-stroke" points="777,545 777,543 776,541 775,540 773,539 771,538 769,538 767,538 766,539 764,540 763,542 762,544 762,546 763,548 763,550 765,551 767,552 768,553 770,553 772,552 774,551 776,550 777,548 777,546 777,545 " />
<polyline fill="none" vector-effect="non-scaling-stroke" points="777,620 777,618 776,616 775,615 773,613 771,613 769,613 767,613 766,614 764,615 763,617 762,619 762,621 763,623 763,624 765,626 767,627 768,627 770,627 772,627 774,626 776,624 777,623 777,621 777,620 " />
<polyline fill="none" vector-effect="non-scaling-stroke" points="777,695 777,693 776,691 775,689 773,688 771,688 769,687 767,688 766,689 764,690 763,691 762,693 762,695 763,697 763,699 765,701 767,702 768,702 770,702 772,702 774,701 776,699 777,698 777,696 777,695 " />
<polyline fill="none" vector-effect="non-scaling-stroke" points="777,770 777,768 776,766 775,764 773,763 771,762 769,762 767,762 766,763 764,765 763,766 762,768 762,770 763,772 763,774 765,775 767,776 768,777 770,777 772,776 774,775 776,774 777,772 777,770 " />
<polyline fill="none" vector-effect="non-scaling-stroke" points="777,844 777,842 776,840 775,839 773,838 771,837 769,837 767,837 766,838 764,839 763,841 762,843 762,845 763,847 763,849 765,850 767,851 768,852 770,852 772,851 774,850 776,849 777,847 777,845 777,844 " />
<polyline fill="none" vector-effect="non-scaling-stroke" points="777,919 777,917 776,915 775,914 773,912 771,912 769,912 767,912 766,913 764,914 763,916 762,918 762,920 763,922 763,923 765,925 767,926 768,926 770,926 772,926 774,925 776,924 777,922 777,920 777,919 " />
<polyline fill="none" vector-effect="non-scaling-stroke" points="777,994 777,992 776,990 775,988 773,987 771,987 769,986 767,987 766,988 764,989 763,991 762,992 762,994 763,996 763,998 765,1000 767,1001 768,1001 770,1001 772,1001 774,1000 776,998 777,997 777,995 777,994 " />
<polyline fill="none" vector-effect="non-scaling-stroke" points="852,246 852,244 851,242 849,241 848,240 846,239 844,239 842,239 840,240 839,241 838,243 837,245 837,247 837,249 838,251 840,252 841,253 843,254 845,254 847,253 849,252 850,251 851,249 852,247 852,246 " />
<polyline fill="none" vector-effect="non-scaling-stroke" points="852,321 852,319 851,317 849,316 848,314 846,314 844,314 842,314 840,315 839,316 838,318 837,320 837,322 837,324 838,325 840,327 841,328 843,328 845,328 847,328 849,327 850,325 851,324 852,322 852,321 " />
<polyline fill="none" vector-effect="non-scaling-stroke" points="852,396 852,394 851,392 849,390 848,389 846,388 844,388 842,389 840,389 839,391 838,392 837,394 837,396 837,398 838,400 840,401 841,403 843,403 845,403 847,403 849,402 850,400 851,398 852,397 852,396 " />
<polyline fill="none" vector-effect="non-scaling-stroke" points="852,470 852,469 851,467 849,465 848,464 846,463 844,463 842,463 840,464 839,466 838,467 837,469 837,471 837,473 838,475 840,476 841,477 843,478 845,478 847,477 849,476 850,475 851,473 852,471 852,470 " />
<polyline fill="none" vector-effect="non-scaling-stroke" points="852,545 852,543 851,541 849,540 848,539 846,538 844,538 842,538 840,539 839,540 838,542 837,544 837,546 837,548 838,550 840,551 841,552 843,553 845,553 847,552 849,551 850,550 851,548 852,546 852,545 " />
<polyline fill="none" vector-effect="non-scaling-stroke" points="852,620 852,618 851,616 849,615 848,613 846,613 844,613 842,613 840,614 839,615 838,617 837,619 837,621 837,623 838,624 840,626 841,627 843,627 845,627 847,627 849,626 850,624 851,623 852,621 852,620 " />
<polyline fill="none" vector-effect="non-scaling-stroke" points="852,695 852,693 851,691 849,689 848,688 846,688 844,687 842,688 840,689 839,690 838,691 837,693 837,695 837,697 838,699 840,701 841,702 843,702 845,702 847,702 849,701 850,699 851,698 852,696 852,695 " />
<polyline fill="none" vector-effect="non-scaling-stroke" points="852,770 852,768 851,766 849,764 848,763 846,762 844,762 842,762 840,763 839,765 838,766 837,768 837,770 837,772 838,774 840,775 841,776 843,777 845,777 847,776 849,775 850,774 851,772 852,770 " />
<polyline fill="none" vector-effect="non-scaling-stroke" points="852,844 852,842 851,840 849,839 848,838 846,837 844,837 842,837 840,838 839,839 838,841 837,843 837,845 837,847 838,849 840,850 841,851 843,852 845,852 847,851 849,850 850,849 851,847 852,845 852,844 " />
<polyline fill="none" vector-effect="non-scaling-stroke" points="852,919 852,917 851,915 849,914 848,912 846,912 844,912 842,912 840,913 839,914 838,916 837,918 837,920 837,922 838,923 840,925 841,926 843,926 845,926 847,926 849,925 850,924 851,922 852,920 852,919 " />
<polyline fill="none" vector-effect="non-scaling-stroke" points="852,994 852,992 851,990 849,988 848,987 846,987 844,986 842,987 840,988 839,989 838,991 837,992 837,994 837,996 838,998 840,1000 841,1001 843,1001 845,1001 847,1001 849,1000 850,998 851,997 852,995 852,994 " />
<polyline fill="none" vector-effect="non-scaling-stroke" points="87,421 87,419 86,417 85,415 83,414 81,413 79,413 77,414 75,414 74,416 73,417 72,419 72,421 72,423 73,425 75,426 76,427 78,428 80,428 82,428 84,427 85,425 86,423 87,421 " />
<polyline fill="none" vector-effect="non-scaling-stroke" points="137,421 136,419 136,417 134,415 133,414 131,413 129,413 127,414 125,414 124,416 123,417 122,419 122,421 122,423 123,425 125,426 126,427 128,428 130,428 132,428 134,427 135,425 136,423 137,421 " />
<polyline fill="none" vector-effect="non-scaling-stroke" points="87,470 87,469 86,467 85,465 83,464 81,463 79,463 77,463 75,464 74,466 73,467 72,469 72,471 72,473 73,475 75,476 76,477 78,478 80,478 82,477 84,476 85,475 86,473 87,471 87,470 " />
<polyline fill="none" vector-effect="non-scaling-stroke" points="137,470 136,469 136,467 134,465 133,464 131,463 129,463 127,463 125,464 124,466 123,467 122,469 122,471 122,473 123,475 125,476 126,477 128,478 130,478 132,477 134,476 135,475 136,473 137,471 137,470 " />
<polyline fill="none" vector-effect="non-scaling-stroke" points="87,520 87,518 86,517 85,515 83,514 81,513 79,513 77,513 75,514 74,515 73,517 72,519 72,521 72,523 73,525 75,526 76,527 78,528 80,528 82,527 84,526 85,525 86,523 87,521 87,520 " />
<polyline fill="none" vector-effect="non-scaling-stroke" points="137,520 136,518 136,517 134,515 133,514 131,513 129,513 127,513 125,514 124,515 123,517 122,519 122,521 122,523 123,525 125,526 126,527 128,528 130,528 132,527 134,526 135,525 136,523 137,521 137,520 " />
<polyline fill="none" vector-effect="non-scaling-stroke" points="87,570 87,568 86,566 85,565 83,564 81,563 79,563 77,563 75,564 74,565 73,567 72,569 72,571 72,573 73,574 75,576 76,577 78,578 80,578 82,577 84,576 85,575 86,573 87,571 87,570 " />
<polyline fill="none" vector-effect="non-scaling-stroke" points="137,570 136,568 136,566 134,565 133,564 131,563 129,563 127,563 125,564 124,565 123,567 122,569 122,571 122,573 123,574 125,576 126,577 128,578 130,578 132,577 134,576 135,575 136,573 137,571 137,570 " />
<polyline fill="none" vector-effect="non-scaling-stroke" points="87,620 87,618 86,616 85,615 83,613 81,613 79,613 77,613 75,614 74,615 73,617 72,619 72,621 72,623 73,624 75,626 76,627 78,627 80,627 82,627 84,626 85,624 86,623 87,621 87,620 " />
<polyline fill="none" vector-effect="non-scaling-stroke" points="87,670 87,668 86,666 85,664 83,663 81,663 79,662 77,663 75,664 74,665 73,667 72,668 72,670 72,672 73,674 75,676 76,677 78,677 80,677 82,677 84,676 85,674 86,673 87,671 87,670 " />
<polyline fill="none" vector-effect="non-scaling-stroke" points="137,670 136,668 136,666 134,664 133,663 131,663 129,662 127,663 125,664 124,665 123,667 122,668 122,670 122,672 123,674 125,676 126,677 128,677 130,677 132,677 134,676 135,674 136,673 137,671 137,670 " />
<polyline fill="none" vector-effect="non-scaling-stroke" points="87,720 87,718 86,716 85,714 83,713 81,712 79,712 77,713 75,713 74,715 73,716 72,718 72,720 72,722 73,724 75,725 76,726 78,727 80,727 82,727 84,726 85,724 86,722 87,720 " />
<polyline fill="none" vector-effect="non-scaling-stroke" points="137,720 136,718 136,716 134,714 133,713 131,712 129,712 127,713 125,713 124,715 123,716 122,718 122,720 122,722 123,724 125,725 126,726 128,727 130,727 132,727 134,726 135,724 136,722 137,720 " />
<polyline fill="none" vector-effect="non-scaling-stroke" points="87,770 87,768 86,766 85,764 83,763 81,762 79,762 77,762 75,763 74,765 73,766 72,768 72,770 72,772 73,774 75,775 76,776 78,777 80,777 82,776 84,775 85,774 86,772 87,770 " />
<polyline fill="none" vector-effect="non-scaling-stroke" points="137,770 136,768 136,766 134,764 133,763 131,762 129,762 127,762 125,763 124,765 123,766 122,768 122,770 122,772 123,774 125,775 126,776 128,777 130,777 132,776 134,775 135,774 136,772 137,770 " />
<polyline fill="none" vector-effect="non-scaling-stroke" points="1168,421 1168,419 1167,417 1166,415 1164,414 1162,413 1160,413 1158,414 1157,414 1155,416 1154,417 1153,419 1153,421 1154,423 1155,425 1156,426 1158,427 1160,428 1162,428 1164,428 1165,427 1167,425 1168,423 1168,421 " />
<polyline fill="none" vector-effect="non-scaling-stroke" points="1118,421 1118,419 1117,417 1116,415 1114,414 1113,413 1111,413 1109,414 1107,414 1105,416 1104,417 1104,419 1103,421 1104,423 1105,425 1106,426 1108,427 1110,428 1112,428 1114,428 1115,427 1117,425 1118,423 1118,421 " />
<polyline fill="none" vector-effect="non-scaling-stroke" points="1168,470 1168,469 1167,467 1166,465 1164,464 1162,463 1160,463 1158,463 1157,464 1155,466 1154,467 1153,469 1153,471 1154,473 1155,475 1156,476 1158,477 1160,478 1162,478 1164,477 1165,476 1167,475 1168,473 1168,471 1168,470 " />
<polyline fill="none" vector-effect="non-scaling-stroke" points="1118,470 1118,469 1117,467 1116,465 1114,464 1113,463 1111,463 1109,463 1107,464 1105,466 1104,467 1104,469 1103,471 1104,473 1105,475 1106,476 1108,477 1110,478 1112,478 1114,477 1115,476 1117,475 1118,473 1118,471 1118,470 " />
<polyline fill="none" vector-effect="non-scaling-stroke" points="1168,520 1168,518 1167,517 1166,515 1164,514 1162,513 1160,513 1158,513 1157,514 1155,515 1154,517 1153,519 1153,521 1154,523 1155,525 1156,526 1158,527 1160,528 1162,528 1164,527 1165,526 1167,525 1168,523 1168,521 1168,520 " />
<polyline fill="none" vector-effect="non-scaling-stroke" points="1118,520 1118,518 1117,517 1116,515 1114,514 1113,513 1111,513 1109,513 1107,514 1105,515 1104,517 1104,519 1103,521 1104,523 1105,525 1106,526 1108,527 1110,528 1112,528 1114,527 1115,526 1117,525 1118,523 1118,521 1118,520 " />
<polyline fill="none" vector-effect="non-scaling-stroke" points="1168,570 1168,568 1167,566 1166,565 1164,564 1162,563 1160,563 1158,563 1157,564 1155,565 1154,567 1153,569 1153,571 1154,573 1155,574 1156,576 1158,577 1160,578 1162,578 1164,577 1165,576 1167,575 1168,573 1168,571 1168,570 " />
<polyline fill="none" vector-effect="non-scaling-stroke" points="1118,570 1118,568 1117,566 1116,565 1114,564 1113,563 1111,563 1109,563 1107,564 1105,565 1104,567 1104,569 1103,571 1104,573 1105,574 1106,576 1108,577 1110,578 1112,578 1114,577 1115,576 1117,575 1118,573 1118,571 1118,570 " />
<polyline fill="none" vector-effect="non-scaling-stroke" points="1168,620 1168,618 1167,616 1166,615 1164,613 1162,613 1160,613 1158,613 1157,614 1155,615 1154,617 1153,619 1153,621 1154,623 1155,624 1156,626 1158,627 1160,627 1162,627 1164,627 1165,626 1167,624 1168,623 1168,621 1168,620 " />
<polyline fill="none" vector-effect="non-scaling-stroke" points="1168,670 1168,668 1167,666 1166,664 1164,663 1162,663 1160,662 1158,663 1157,664 1155,665 1154,667 1153,668 1153,670 1154,672 1155,674 1156,676 1158,677 1160,677 1162,677 1164,677 1165,676 1167,674 1168,673 1168,671 1168,670 " />
<polyline fill="none" vector-effect="non-scaling-stroke" points="1118,670 1118,668 1117,666 1116,664 1114,663 1113,663 1111,662 1109,663 1107,664 1105,665 1104,667 1104,668 1103,670 1104,672 1105,674 1106,676 1108,677 1110,677 1112,677 1114,677 1115,676 1117,674 1118,673 1118,671 1118,670 " />
<polyline fill="none" vector-effect="non-scaling-stroke" points="1168,720 1168,718 1167,716 1166,714 1164,713 1162,712 1160,712 1158,713 1157,713 1155,715 1154,716 1153,718 1153,720 1154,722 1155,724 1156,725 1158,726 1160,727 1162,727 1164,727 1165,726 1167,724 1168,722 1168,720 " />
<polyline fill="none" vector-effect="non-scaling-stroke" points="1118,720 1118,718 1117,716 1116,714 1114,713 1113,712 1111,712 1109,713 1107,713 1105,715 1104,716 1104,718 1103,720 1104,722 1105,724 1106,725 1108,726 1110,727 1112,727 1114,727 1115,726 1117,724 1118,722 1118,720 " />
<polyline fill="none" vector-effect="non-scaling-stroke" points="1168,770 1168,768 1167,766 1166,764 1164,763 1162,762 1160,762 1158,762 1157,763 1155,765 1154,766 1153,768 1153,770 1154,772 1155,774 1156,775 1158,776 1160,777 1162,777 1164,776 1165,775 1167,774 1168,772 1168,770 " />
<polyline fill="none" vector-effect="non-scaling-stroke" points="1118,770 1118,768 1117,766 1116,764 1114,763 1113,762 1111,762 1109,762 1107,763 1105,765 1104,766 1104,768 1103,770 1104,772 1105,774 1106,775 1108,776 1110,777 1112,777 1114,776 1115,775 1117,774 1118,772 1118,770 " />
<polyline fill="none" vector-effect="non-scaling-stroke" points="702,470 702,469 701,467 700,465 698,464 697,463 695,463 693,463 691,464 689,466 688,467 688,469 687,471 688,473 689,475 690,476 692,477 694,478 696,478 698,477 699,476 701,475 702,473 702,471 702,470 " />
<polyline fill="none" vector-effect="non-scaling-stroke" points="702,396 702,394 701,392 700,390 698,389 697,388 695,388 693,389 691,389 689,391 688,392 688,394 687,396 688,398 689,400 690,401 692,403 694,403 696,403 698,403 699,402 701,400 702,398 702,397 702,396 " />
<polyline fill="none" vector-effect="non-scaling-stroke" points="129,613 142,613 " />
<polyline fill="none" vector-effect="non-scaling-stroke" points="142,627 129,627 " />
<polyline fill="none" vector-effect="non-scaling-stroke" points="129,613 127,613 125,614 124,615 123,616 122,618 122,620 122,622 123,624 124,626 126,627 128,627 129,627 " />
<polyline fill="none" vector-effect="non-scaling-stroke" points="141,627 143,627 145,626 147,625 148,624 149,622 149,620 149,618 148,616 146,614 145,613 143,613 141,613 " />
<polyline fill="none" vector-effect="non-scaling-stroke" points="1098,613 1111,613 " />
<polyline fill="none" vector-effect="non-scaling-stroke" points="1111,627 1098,627 " />
<polyline fill="none" vector-effect="non-scaling-stroke" points="1098,613 1097,613 1095,614 1093,615 1092,616 1091,618 1091,620 1091,622 1092,624 1094,626 1095,627 1097,627 1098,627 " />
<polyline fill="none" vector-effect="non-scaling-stroke" points="1111,627 1113,627 1115,626 1116,625 1117,624 1118,622 1118,620 1118,618 1117,616 1116,614 1114,613 1112,613 1111,613 " />
</g>
</g>
</svg>
